<?xml version="1.0" encoding="UTF-8" standalone="no"?>
<svg
   version="1.1"
   viewBox="0 0 381.64002 461.74799"
   id="svg186"
   sodipodi:docname="logo.svg"
   width="381.64001"
   height="461.74799"
   inkscape:version="1.3 (0e150ed6c4, 2023-07-21)"
   xmlns:inkscape="http://www.inkscape.org/namespaces/inkscape"
   xmlns:sodipodi="http://sodipodi.sourceforge.net/DTD/sodipodi-0.dtd"
   xmlns="http://www.w3.org/2000/svg"
   xmlns:svg="http://www.w3.org/2000/svg">
  <sodipodi:namedview
     id="namedview186"
     pagecolor="#ffffff"
     bordercolor="#000000"
     borderopacity="0.25"
     inkscape:showpageshadow="2"
     inkscape:pageopacity="0.0"
     inkscape:pagecheckerboard="0"
     inkscape:deskcolor="#d1d1d1"
     inkscape:zoom="0.6455067"
     inkscape:cx="151.04413"
     inkscape:cy="90.62648"
     inkscape:window-width="1920"
     inkscape:window-height="1009"
     inkscape:window-x="1912"
     inkscape:window-y="-8"
     inkscape:window-maximized="1"
     inkscape:current-layer="svg186" />
  <defs
     id="defs1">
    <style
       id="style1">&#10;      .cls-1 {&#10;        fill: #baddf8;&#10;      }&#10;&#10;      .cls-2 {&#10;        fill: #62b3f0;&#10;      }&#10;&#10;      .cls-3 {&#10;        fill: #d6ebfa;&#10;      }&#10;&#10;      .cls-4 {&#10;        fill: #4fa9ee;&#10;      }&#10;&#10;      .cls-5 {&#10;        fill: #a5d3f6;&#10;      }&#10;&#10;      .cls-6 {&#10;        fill: #bbddf8;&#10;      }&#10;&#10;      .cls-7 {&#10;        fill: #44a4ed;&#10;      }&#10;&#10;      .cls-8 {&#10;        fill: #cde6fa;&#10;      }&#10;&#10;      .cls-9 {&#10;        fill: #bedff8;&#10;      }&#10;&#10;      .cls-10 {&#10;        fill: #40a2ed;&#10;      }&#10;&#10;      .cls-11 {&#10;        fill: #7fc0f3;&#10;      }&#10;&#10;      .cls-12 {&#10;        fill: #7ec0f2;&#10;      }&#10;&#10;      .cls-13 {&#10;        fill: #c6e3f9;&#10;      }&#10;&#10;      .cls-14 {&#10;        fill: #a1d1f6;&#10;      }&#10;&#10;      .cls-15 {&#10;        fill: #41a2ed;&#10;      }&#10;&#10;      .cls-16 {&#10;        fill: #9fd0f5;&#10;      }&#10;&#10;      .cls-17 {&#10;        fill: #a0d0f5;&#10;      }&#10;&#10;      .cls-18 {&#10;        fill: #8ec8f4;&#10;      }&#10;&#10;      .cls-19 {&#10;        fill: #daecfb;&#10;      }&#10;&#10;      .cls-20 {&#10;        fill: #73baf1;&#10;      }&#10;&#10;      .cls-21 {&#10;        fill: #4da9ee;&#10;      }&#10;&#10;      .cls-22 {&#10;        fill: #c7e3f9;&#10;      }&#10;&#10;      .cls-23 {&#10;        fill: #8cc7f4;&#10;      }&#10;&#10;      .cls-24 {&#10;        fill: #63b3f0;&#10;      }&#10;&#10;      .cls-25 {&#10;        fill: #9acef5;&#10;      }&#10;&#10;      .cls-26 {&#10;        fill: #4ca8ee;&#10;      }&#10;&#10;      .cls-27 {&#10;        fill: #7fa0b8;&#10;      }&#10;&#10;      .cls-28 {&#10;        fill: #60b2f0;&#10;      }&#10;&#10;      .cls-29 {&#10;        fill: #41a3ed;&#10;      }&#10;&#10;      .cls-30 {&#10;        fill: #84c3f3;&#10;      }&#10;&#10;      .cls-31 {&#10;        fill: #d3e9fa;&#10;      }&#10;&#10;      .cls-32 {&#10;        fill: #add6f7;&#10;      }&#10;&#10;      .cls-33 {&#10;        fill: #64b3f0;&#10;      }&#10;&#10;      .cls-34 {&#10;        fill: #56adef;&#10;      }&#10;&#10;      .cls-35 {&#10;        fill: #70b9f1;&#10;      }&#10;&#10;      .cls-36 {&#10;        fill: #4da8ee;&#10;      }&#10;&#10;      .cls-37 {&#10;        fill: #96ccf5;&#10;      }&#10;&#10;      .cls-38 {&#10;        fill: #c4e2f9;&#10;      }&#10;&#10;      .cls-39 {&#10;        fill: #95bcd9;&#10;      }&#10;&#10;      .cls-40 {&#10;        fill: #79bdf2;&#10;      }&#10;&#10;      .cls-41 {&#10;        fill: #a4d2f6;&#10;      }&#10;&#10;      .cls-42 {&#10;        fill: #add7f7;&#10;      }&#10;&#10;      .cls-43 {&#10;        fill: #43a4ed;&#10;      }&#10;&#10;      .cls-44 {&#10;        fill: #44a4ee;&#10;      }&#10;&#10;      .cls-45 {&#10;        fill: #53abef;&#10;      }&#10;&#10;      .cls-46 {&#10;        fill: #45a4ee;&#10;      }&#10;&#10;      .cls-47 {&#10;        fill: #4aa7ee;&#10;      }&#10;&#10;      .cls-48 {&#10;        fill: #75bbf2;&#10;      }&#10;&#10;      .cls-49 {&#10;        fill: #68b5f1;&#10;      }&#10;&#10;      .cls-50 {&#10;        fill: #6cb7f1;&#10;      }&#10;&#10;      .cls-51 {&#10;        fill: #f4f9fd;&#10;      }&#10;&#10;      .cls-52 {&#10;        fill: #49a6ee;&#10;      }&#10;&#10;      .cls-53 {&#10;        fill: #a8d4f6;&#10;      }&#10;&#10;      .cls-54 {&#10;        fill: #deeefb;&#10;      }&#10;&#10;      .cls-55 {&#10;        fill: #51aaef;&#10;      }&#10;&#10;      .cls-56 {&#10;        fill: #52abef;&#10;      }&#10;&#10;      .cls-57 {&#10;        fill: #c8e4f9;&#10;      }&#10;&#10;      .cls-58 {&#10;        fill: #fbfdfe;&#10;      }&#10;&#10;      .cls-59 {&#10;        fill: #46a5ee;&#10;      }&#10;&#10;      .cls-60 {&#10;        fill: #65b4f0;&#10;      }&#10;&#10;      .cls-61 {&#10;        fill: #6fb9f1;&#10;      }&#10;&#10;      .cls-62 {&#10;        fill: #96cbf5;&#10;      }&#10;&#10;      .cls-63 {&#10;        fill: #ecf5fc;&#10;      }&#10;&#10;      .cls-64 {&#10;        fill: #94cbf4;&#10;      }&#10;&#10;      .cls-65 {&#10;        fill: #8dc7f4;&#10;      }&#10;&#10;      .cls-66 {&#10;        fill: #3fa1ed;&#10;      }&#10;&#10;      .cls-67 {&#10;        fill: #42a3ed;&#10;      }&#10;&#10;      .cls-68 {&#10;        fill: #93caf4;&#10;      }&#10;&#10;      .cls-69 {&#10;        fill: #8fc8f4;&#10;      }&#10;&#10;      .cls-70 {&#10;        fill: #9dcff5;&#10;      }&#10;&#10;      .cls-71 {&#10;        fill: #a2d2f6;&#10;      }&#10;&#10;      .cls-72 {&#10;        fill: #d4eafa;&#10;      }&#10;&#10;      .cls-73 {&#10;        fill: #dceefb;&#10;      }&#10;&#10;      .cls-74 {&#10;        fill: #ddeefb;&#10;      }&#10;&#10;      .cls-75 {&#10;        fill: #b3d9f7;&#10;      }&#10;&#10;      .cls-76 {&#10;        fill: #47a6ee;&#10;      }&#10;&#10;      .cls-77 {&#10;        fill: #a9d3f3;&#10;      }&#10;&#10;      .cls-78 {&#10;        fill: #9bcef5;&#10;      }&#10;&#10;      .cls-79 {&#10;        fill: #aed7f7;&#10;      }&#10;&#10;      .cls-80 {&#10;        fill: #7cbff2;&#10;      }&#10;&#10;      .cls-81 {&#10;        fill: #62b2f0;&#10;      }&#10;&#10;      .cls-82 {&#10;        fill: #cee7fa;&#10;      }&#10;&#10;      .cls-83 {&#10;        fill: #6ab6f1;&#10;      }&#10;&#10;      .cls-84 {&#10;        fill: #e8f3fc;&#10;      }&#10;&#10;      .cls-85 {&#10;        fill: #d5eafa;&#10;      }&#10;&#10;      .cls-86 {&#10;        fill: #b5dbf7;&#10;      }&#10;&#10;      .cls-87 {&#10;        fill: #97ccf5;&#10;      }&#10;&#10;      .cls-88 {&#10;        fill: #ebf5fc;&#10;      }&#10;&#10;      .cls-89 {&#10;        fill: #60b1f0;&#10;      }&#10;&#10;      .cls-90 {&#10;        fill: #cae5f9;&#10;      }&#10;&#10;      .cls-91 {&#10;        fill: #b1d9f7;&#10;      }&#10;&#10;      .cls-92 {&#10;        fill: #b3daf7;&#10;      }&#10;&#10;      .cls-93 {&#10;        fill: #6fb8f1;&#10;      }&#10;&#10;      .cls-94 {&#10;        fill: #9ccff5;&#10;      }&#10;&#10;      .cls-95 {&#10;        fill: #bddff8;&#10;      }&#10;&#10;      .cls-96 {&#10;        fill: #43a3ed;&#10;      }&#10;&#10;      .cls-97 {&#10;        fill: #5fb1f0;&#10;      }&#10;&#10;      .cls-98 {&#10;        fill: #bddef8;&#10;      }&#10;&#10;      .cls-99 {&#10;        fill: #89c6f4;&#10;      }&#10;&#10;      .cls-100 {&#10;        fill: #fdfefe;&#10;      }&#10;&#10;      .cls-101 {&#10;        fill: #d2e9fa;&#10;      }&#10;&#10;      .cls-102 {&#10;        fill: #82c2f3;&#10;      }&#10;&#10;      .cls-103 {&#10;        fill: #99cdf5;&#10;      }&#10;&#10;      .cls-104 {&#10;        fill: #d9ecfb;&#10;      }&#10;&#10;      .cls-105 {&#10;        fill: #67b5f0;&#10;      }&#10;&#10;      .cls-106 {&#10;        fill: #72baf1;&#10;      }&#10;&#10;      .cls-107 {&#10;        fill: #81c1f3;&#10;      }&#10;    </style>
  </defs>
  <!-- Generator: Adobe Illustrator 28.6.0, SVG Export Plug-In . SVG Version: 1.2.0 Build 709)  -->
  <g
     id="g186"
     transform="translate(-490.77993,-152.63576)">
    <g
       id="Capa_1">
      <path
         class="cls-66"
         d="m 491.09,480.86 c -0.07,-1.66 -0.19,-3.32 -0.19,-4.99 0,-68.96 0.05,-137.92 -0.12,-206.88 -0.01,-5.32 1.09,-8.72 6.05,-11.44 16.25,-8.93 32.25,-18.32 48.32,-27.59 17.77,-10.25 35.51,-20.57 53.26,-30.86 16.05,-9.31 32.09,-18.62 48.13,-27.93 9.37,-5.43 18.88,-10.63 28.05,-16.39 4.49,-2.82 8.09,-2.85 12.65,-0.14 18.05,10.74 36.31,21.13 54.47,31.69 17.74,10.31 35.42,20.71 53.17,31.01 15.9,9.23 31.85,18.39 47.78,27.57 9.38,5.41 18.77,10.79 28.16,16.19 1.49,2.37 1.58,5.05 1.58,7.69 0.01,69.38 0.04,138.76 0,208.13 0,0.67 -0.05,1.33 -0.15,1.97 -0.47,3.05 -2.98,4.21 -5.27,5.54 -24.76,14.36 -49.58,28.62 -74.34,42.98 -30.8,17.87 -61.63,35.68 -92.46,53.5 -4.61,2.67 -9.28,5.24 -13.77,8.1 -3.61,2.3 -7.08,2.22 -10.78,0.05 -29.59,-17.3 -59.3,-34.41 -88.96,-51.57 -29.38,-17 -58.72,-34.08 -88.15,-51 -2.69,-1.55 -5.82,-2.63 -7.43,-5.65 z"
         id="path1" />
      <path
         class="cls-77"
         d="m 870.82,487.91 c 0.71,16.86 0.65,16.76 -13.52,24.96 -45.31,26.2 -90.57,52.48 -135.85,78.73 -12.65,7.33 -25.32,14.62 -37.94,22 -1.79,1.05 -3.24,1.04 -5.03,0 -31.89,-18.53 -63.8,-37.02 -95.71,-55.51 -28.47,-16.49 -56.89,-33.07 -85.47,-49.37 -4.55,-2.6 -7.11,-5.37 -6.33,-10.84 0.46,-3.27 0.16,-6.64 0.2,-9.97 2.12,-1.6 3.79,-0.09 5.46,0.88 28.51,16.52 57.23,32.66 85.74,49.16 30.24,17.5 60.67,34.68 90.87,52.24 5.29,3.08 10.22,3.09 15.5,-0.02 27.38,-16.13 55.11,-31.66 82.62,-47.57 31.26,-18.07 62.68,-35.86 94,-53.81 1.67,-0.96 3.34,-2.47 5.46,-0.88 z"
         id="path2" />
      <path
         class="cls-39"
         d="m 870.82,487.91 c -5.49,1.18 -9.74,4.85 -14.46,7.49 -22.88,12.83 -45.59,25.95 -68.34,39.01 -23.75,13.64 -47.46,27.36 -71.21,41.01 -9.79,5.63 -19.62,11.18 -29.43,16.78 -4.27,2.44 -8.52,2.44 -12.78,0 -14.56,-8.32 -29.13,-16.63 -43.68,-24.96 -17.58,-10.06 -35.14,-20.15 -52.71,-30.23 -21.6,-12.39 -43.13,-24.91 -64.84,-37.11 -7.33,-4.12 -14.12,-9.27 -22.2,-12 -0.03,-1.65 -0.05,-3.29 -0.08,-4.94 6.47,2.2 11.94,6.27 17.75,9.64 26.17,15.17 52.42,30.19 78.59,45.37 29.01,16.83 58.18,33.37 87.03,50.47 4.7,2.79 8.7,2.48 13.39,-0.27 28.52,-16.69 57.11,-33.27 85.81,-49.65 21.94,-12.52 43.73,-25.3 65.62,-37.9 9.94,-5.72 20.03,-11.19 29.68,-17.42 0.57,-0.37 1.2,-0.57 1.89,-0.46 0.47,0.35 0.55,0.78 0.24,1.28 -0.09,1.3 -0.18,2.59 -0.28,3.89 z"
         id="path3" />
      <path
         class="cls-27"
         d="m 870.79,482.88 c -8.57,6.94 -18.59,11.52 -28.01,17.07 -19.73,11.62 -39.64,22.93 -59.48,34.36 -17.66,10.17 -35.33,20.31 -52.99,30.47 -13.81,7.94 -27.76,15.66 -41.36,23.94 -5.34,3.25 -10,3.61 -15.28,0.53 -17.19,-10.02 -34.41,-19.99 -51.65,-29.91 -16.2,-9.32 -32.47,-18.53 -48.67,-27.85 -16.68,-9.6 -33.32,-19.28 -49.97,-28.92 -8.18,-4.74 -16.39,-9.43 -24.53,-14.26 -2.7,-1.6 -5.19,-3.55 -7.77,-5.33 0,-0.7 0,-1.41 0,-2.11 27.38,15.88 54.74,31.79 82.15,47.62 22.53,13.01 45.14,25.9 67.68,38.9 11.34,6.54 22.7,13.05 33.87,19.87 4.14,2.53 7.58,2.92 11.9,0.36 19.95,-11.83 40.04,-23.43 60.1,-35.08 28.94,-16.82 57.87,-33.66 86.85,-50.42 12.34,-7.14 24.76,-14.13 37.15,-21.19 0.64,0.65 0.72,1.31 0,1.96 z"
         id="path4" />
      <path
         class="cls-63"
         d="m 683.06,485.07 c -1.43,12.92 -1.81,25.92 -2.31,39.54 -2.2,-2.05 -1.53,-3.99 -1.6,-5.67 -0.43,-10.95 -0.53,-21.92 -2.15,-32.79 -0.25,-1.68 -0.05,-3.21 0.57,-4.84 0.98,-2.56 -0.05,-4.35 -2.79,-5.01 -0.48,-0.98 -0.1,-1.84 0.34,-2.7 2.86,-3.45 0.82,-6.3 -1.13,-9.15 -0.23,-0.65 -0.42,-1.31 -0.66,-1.96 -1.77,-2.27 -4.26,-2.94 -6.94,-3.53 -16.47,-3.58 -31.19,-10.48 -42.79,-23.11 -3.62,-3.5 -6.65,-7.48 -9.53,-11.59 -3.18,-4.84 -5.92,-9.92 -7.55,-15.49 -1.21,-4.15 -3.03,-7.57 -7.41,-9.02 -0.3,-0.38 -0.47,-0.82 -0.53,-1.3 0.24,-1.48 1.14,-2.57 2.15,-3.59 0.42,-0.22 0.87,-0.31 1.35,-0.25 1.31,0.47 2.5,1.17 3.69,1.88 1.38,1.09 1.43,2.89 2.3,4.26 1.81,4.12 3.9,8.13 4.9,12.57 1.93,4.03 4.08,7.91 7.48,10.93 2.44,2.03 3.93,4.66 4.85,7.65 10.28,11.48 23.22,18.32 38.08,21.75 1.93,0.44 4.24,1.68 5.76,-0.96 2.66,-2.23 3.41,1.25 5.18,1.72 q 6.28,4.72 12.09,-0.47 c 1.01,-0.91 1.48,-2.19 2.49,-3.06 0.9,-0.52 1.72,-0.48 2.4,0.39 0.48,0.95 0.14,2.24 1.23,2.92 15.33,-2.12 28.28,-9.02 39.44,-19.51 0.93,-0.87 2.51,-1.78 2.02,-3.17 -0.6,-1.72 -2.53,-1.13 -3.94,-1.25 -1.65,-0.14 -3.35,0.11 -4.92,-0.55 -0.93,-0.39 -1.85,-0.95 -0.87,-2.19 3.52,-1.53 7.5,-0.48 11.03,-1.95 4.21,0.65 6.03,-2.76 7.68,-5.31 7.77,-12.06 11.75,-25.27 10.71,-39.76 -0.07,-0.91 -0.3,-1.64 -1.48,-1.39 -0.66,0.26 -1.3,0.49 -2.01,0.53 -2.1,-0.42 -3.24,-1.46 -2.44,-3.75 4.61,-1.72 5.44,-5 4.12,-9.42 -0.65,-2.18 -1.05,-4.46 -1.35,-6.73 -0.66,-3.53 -1.58,-6.99 -3.19,-10.22 -1.3,-2.77 -2.51,-5.59 -4.32,-8.1 -1.02,-1.83 -3.34,-3.57 -0.37,-5.66 1.39,0.16 2.23,1.1 3.04,2.09 3.72,5.82 6.89,11.92 9.17,18.45 0.7,3.14 1.08,6.34 2.03,9.43 0.54,1.46 1.11,2.9 1.29,4.46 0.12,1.07 0.13,2.14 0.17,3.22 0.62,14.24 -0.3,28.19 -6.88,41.26 -1.58,3.12 -3.36,6.1 -5.13,9.09 -3.49,4.43 -6.54,9.23 -10.83,13 -11.74,12.12 -26.24,18.98 -42.57,22.39 -6.75,1.41 -10.54,7.59 -8.35,13.46 0.24,0.44 0.42,0.9 0.56,1.37 0.11,0.48 0.28,1.33 0.08,1.41 -5.15,1.81 -4.24,4.87 -1.84,8.34 0.25,0.37 -0.06,0.94 -0.33,1.36 z"
         id="path5" />
      <path
         class="cls-100"
         d="m 802.06,341.15 c 3.99,-3.61 9.44,-3.78 14.04,-5.98 2.53,-1.21 5.2,-2.14 7.81,-3.2 1.19,-0.32 2.59,-1.33 2.94,0.95 -6.4,4.1 -14.02,6.03 -19.9,11.05 -3.73,1.1 -6.84,3.43 -10.21,5.23 -2.05,0.5 -2.73,1.82 -2.93,3.91 -0.81,8.28 -5.54,13.62 -13.06,16.73 -3.49,-0.37 -6.87,2.4 -10.43,0.39 -3.46,-2.1 -6.56,-4.58 -8.61,-8.16 -1.95,-4.26 -2.28,-8.57 -0.49,-12.97 2.9,-5.74 7.37,-9.31 13.89,-10.11 2.73,-0.33 5.52,-0.42 7.62,1.47 6.33,5.71 12.81,3.07 19.34,0.69 z"
         id="path6" />
      <path
         class="cls-100"
         d="m 545.15,335.95 c 4.59,1.67 9.68,2.12 13.44,5.77 1.76,1.71 4.95,-0.32 6.44,2.31 4.12,0.4 7.74,-0.71 11.24,-2.99 6.19,-4.03 14.26,-2.38 19.72,3.67 5.42,6 5.75,13.35 0.87,19.52 -4.62,5.85 -13.56,7.97 -19.78,4.61 -2.49,-1.35 -4.82,-2.96 -6.57,-5.26 -1.04,-1.52 -1.75,-3.24 -1.88,-5.02 -0.46,-6.19 -3.26,-10.44 -9.46,-12.08 -1.99,-0.97 -4.07,-1.7 -6.15,-2.43 -2.82,-2.86 -6.68,-4.02 -9.98,-6.1 -0.74,-0.4 -1.45,-1.03 -0.87,-1.81 0.79,-1.07 1.94,-0.65 2.97,-0.18 z"
         id="path7" />
      <path
         class="cls-103"
         d="m 571.15,362.93 c 3.85,3.11 7.34,6.62 13.05,6.25 6.41,-0.42 12.51,-4.67 14.53,-10.94 1.56,-4.83 -1.1,-11.2 -6.34,-15.21 -4.68,-3.58 -11.25,-3.9 -16.24,-0.54 -3.53,2.38 -6.93,4.56 -11.13,1.53 1.6,-1.42 3.22,-2.81 4.78,-4.26 7.08,-6.6 16.61,-7.7 25.07,-2.89 0.65,0.51 0.73,1.17 0.49,1.91 -1.32,1.35 -2.66,-0.01 -4.07,0.07 3.7,0.8 5.73,3.57 7.73,6.12 -0.6,-1.85 -3.11,-2.62 -3.42,-4.9 0.68,-1.11 0.08,-3.25 2.43,-3.01 3.17,3.82 6.64,7.47 7.32,12.72 0.39,2.15 1.02,4.24 1.4,6.39 -0.26,5.12 -1.16,10.15 -2.5,15.09 -0.53,1.94 -0.17,5.12 -3.01,4.94 -3.33,-0.21 -2.16,-3.38 -2.28,-5.53 0,-0.13 0,-0.45 -0.07,-0.47 -0.79,-0.15 -0.35,0.69 -0.71,0.94 -0.5,0.48 -1.09,0.73 -1.74,0.89 -2.3,0.59 -5.43,-0.5 -6.19,3.14 -0.57,0.42 -1.21,0.55 -1.9,0.51 -1.16,0.06 -2.54,-1.5 -3.45,0.47 -4.35,-0.27 -8.41,-1.42 -11.94,-4.09 0.17,-0.76 0.63,-1.24 1.38,-1.45 1.09,0.27 2.28,0.23 3.58,1.08 -4.31,-2.34 -9.01,-3.84 -9.11,-9.63 1.17,-0.76 1.65,0.33 2.35,0.86 z"
         id="path8" />
      <path
         class="cls-85"
         d="m 683.06,485.07 c -0.28,-2.41 -2.06,-4.2 -2.24,-6.86 -0.2,-2.93 4.63,-1.13 3.18,-4.26 2.76,-2.41 6.31,-0.64 9.31,-1.8 13.54,-2.44 26.47,-6.75 37.76,-14.69 20.17,-14.2 33.56,-32.92 38.45,-57.67 1.1,-5.6 0.34,-11.49 2.77,-16.82 0.73,-0.79 1.5,-1.47 2.69,-0.97 1.35,3.88 0.04,7.49 -0.41,11.36 -1.27,10.82 -4.64,20.83 -9.55,30.24 -15.97,30.6 -41.32,48.05 -75.61,52.44 -0.99,0.13 -1.98,0.21 -2.97,0.31 -3.68,0.36 -5.91,1.57 -3.25,5.6 0.71,1.08 0.91,2.12 -0.13,3.12 z"
         id="path9" />
      <path
         class="cls-72"
         d="m 584.9,376.16 c 0.18,-1.14 -2.4,-1.63 -1.11,-2.51 1.21,-0.82 2.88,0.35 4.16,1.25 2.85,5.75 -0.56,11.97 1.32,17.84 0.49,1.52 0.28,3.28 0.76,4.87 0.16,0.74 0.24,1.49 0.29,2.24 4.2,20.99 14.93,38.03 31.07,51.88 11.47,9.84 24.92,15.56 39.3,19.47 2.26,0.62 4.63,0.39 6.89,0.97 2.71,1.09 6.04,-0.58 8.43,1.89 -0.41,0.75 -0.83,1.5 -1.24,2.25 -42.49,-2.85 -76.24,-31.07 -87.21,-72.53 -2.42,-9.14 -2.61,-18.33 -2.67,-27.62 z"
         id="path10" />
      <path
         class="cls-9"
         d="m 774.98,381.99 c -0.64,0.34 -1.28,0.68 -1.92,1.02 -3.49,5.1 -4.08,11.16 -4.33,16.92 -0.18,4.07 -0.65,8.05 -2.16,11.53 -5.77,13.3 -13.09,25.63 -24.72,34.84 -1.05,0.72 -2.27,1.8 -3.42,0.76 -1.36,-1.23 -0.04,-2.34 0.87,-3.13 1.79,-1.57 -2.01,-1.21 -0.79,-2.49 3.48,-6.6 8.62,-12.13 11.92,-18.85 3.08,-6.25 6.28,-12.44 6.26,-19.67 0.04,-1.22 0.11,-2.43 0.7,-3.53 0.44,-0.78 1.57,-0.57 1.99,-1.2 2.57,-3.91 3.38,-1.76 4.04,1.11 0.08,0.46 0.08,0.92 0.02,1.39 -0.11,0.97 -0.96,1.79 -0.46,3.33 1.11,-1.74 0.95,-3.34 0.9,-4.92 0.7,-8.03 4.35,-15.42 4.98,-23.45 0.11,-0.49 0.32,-0.94 0.61,-1.36 0.23,-0.27 0.76,-0.48 0.78,-0.42 0.72,2.76 4.38,3.23 4.82,6.19 -0.03,0.65 -0.05,1.29 -0.08,1.94 z"
         id="path11" />
      <path
         class="cls-101"
         d="m 598.18,337.23 c -1.47,0.33 -0.9,2.24 -2.13,2.76 -0.95,0.41 -1.19,-0.06 -1.15,-0.91 0,-0.74 0,-1.47 -0.01,-2.21 4.9,-5.6 8.1,-12.41 13.1,-18 15.74,-17.6 34.95,-28.68 58.47,-31.92 3.77,-0.52 7.57,-0.83 11.36,-1.24 0.87,2.28 1.56,4.66 4.68,4.89 0.84,0.06 1.09,1.15 1.14,2.02 -0.01,0.71 -0.17,1.41 -0.26,2.11 -0.42,2.13 0.54,4.31 -0.26,6.42 -0.41,0.25 -0.87,0.36 -1.35,0.33 -1.28,-0.42 -1.64,-1.43 -1.59,-2.63 0.02,-0.63 0.32,-1.24 0.32,-1.88 -0.17,0.63 -0.4,1.22 -1.18,1.3 -2.32,-0.45 -0.22,-4.9 -3.81,-4.18 -1.02,0.52 -1.89,1.35 -3.08,1.51 -1.54,-0.07 -2.14,-0.95 -2.11,-2.4 0.11,-1.48 1.6,-2 2.52,-3.64 -31.3,3.6 -55.41,17.81 -71.62,44.73 -0.63,1.03 -1.32,2.01 -2.36,2.68 -0.23,0.09 -0.45,0.17 -0.68,0.25 z"
         id="path12" />
      <path
         class="cls-3"
         d="m 682.21,281.08 c -0.73,3.8 1.12,4.61 4.63,4.96 34.55,3.48 60.43,20.31 77.3,50.77 0.36,0.75 1.51,1.31 0.58,2.38 -1.8,0.77 -2.54,-0.64 -3.45,-1.69 -1.24,-1.7 -2.03,-3.7 -3.42,-5.3 -8.65,-13.13 -19.69,-23.63 -33.42,-31.4 -11.35,-6.42 -23.64,-9.49 -36.38,-11.31 -1.75,-0.25 -3.18,0.86 -4.85,0.75 -1.85,-1.32 -2.75,-3.27 -3.07,-5.37 -0.25,-1.6 -0.71,-3.7 2.09,-3.8 z"
         id="path13" />
      <path
         class="cls-25"
         d="m 780.92,368.92 c 6.78,-4.04 12.23,-9.04 11.55,-17.82 -0.24,-3.14 2.36,-2 3.57,-2.94 3.25,4.63 3.24,9.25 -0.1,13.83 -2.31,3.8 -4.24,7.95 -8.42,10.17 -2.05,1.09 -4.11,3.27 -6.3,-0.13 -0.93,-1.44 -1.83,-0.53 -2.43,0.82 -0.79,1.79 -1.85,3.46 -2.79,5.18 -0.24,-2.78 -3.37,-3.39 -4.25,-5.69 1.97,-4.07 6.21,-2.04 9.18,-3.43 z"
         id="path14" />
      <path
         class="cls-51"
         d="m 682.21,281.08 c -3.45,3.64 1.06,5.99 1.46,9 0.95,-0.09 1.83,0.04 2.49,0.83 0.27,1.52 -0.81,1.98 -1.91,2.43 -0.48,0.05 -0.89,-0.09 -1.21,-0.45 -0.17,-0.84 -0.49,-1.8 -1.45,-1.7 -4.65,0.45 -4.26,-2.45 -3.76,-5.47 -0.41,-15.01 1.05,-29.94 1.51,-45.04 2.34,0.49 1.53,2.16 1.58,3.22 0.43,8.62 1.13,17.23 1.54,25.83 0.18,3.66 0.65,7.6 -0.24,11.35 z"
         id="path15" />
      <path
         class="cls-87"
         d="m 764.86,338.98 c -0.24,-0.72 -0.49,-1.44 -0.73,-2.16 3.72,-0.66 6.94,-2.89 10.94,-2.88 4.85,0.01 9.82,0.63 12.83,4.21 4.28,5.07 9.07,3.82 14.15,3 -6.86,4.99 -12.21,5.3 -18.6,1.09 -5.24,-3.46 -12.48,-2.63 -17.19,2.04 -1.51,1.49 -2.84,3.16 -4.25,4.75 -0.87,0.53 -0.26,2.67 -2.21,2.04 -1.33,-5.46 1.72,-9.76 9.01,-12.65 -1.05,0.75 -2.25,0.64 -3.34,0.92 -0.2,-0.12 -0.4,-0.23 -0.6,-0.35 z"
         id="path16" />
      <path
         class="cls-97"
         d="m 795.95,362 c 1.24,-4.6 1.41,-9.21 0.1,-13.84 3.64,-1.38 6.19,-5.59 10.9,-4.2 -0.89,1.27 -2.69,2.24 -1.77,4.17 2.04,4.31 -1.06,7.55 -2.44,11.01 -1.09,2.72 -4.05,2.98 -6.78,2.85 z"
         id="path17" />
      <path
         class="cls-28"
         d="m 553.04,344.04 c 2.39,-0.4 4.65,0.03 6.79,1.14 0.39,0.31 0.55,1.01 0.79,1.13 7.86,3.93 3.81,10.93 4.37,16.73 -7.85,-3.26 -9.85,-6.31 -9.09,-14.8 0.23,-2.52 -1.98,-2.76 -2.86,-4.19 z"
         id="path18" />
      <path
         class="cls-95"
         d="m 564.98,363.03 c -0.76,-3.94 -2.27,-7.78 -1.1,-11.94 0.43,-1.51 0.05,-2.95 -2.06,-3.07 -1.79,-0.11 -1.84,-1.55 -2,-2.85 7.96,1.87 9.82,7.94 10.38,14.96 0.08,0.95 0.62,1.86 0.95,2.79 -0.73,-0.29 -1.46,-0.57 -2.19,-0.86 -1.59,1.42 -0.01,2.2 0.61,3.23 1.27,2.08 3.8,3.16 4.46,5.7 -0.36,0.35 -0.72,0.71 -1.08,1.06 -3.47,-2.3 -6.05,-5.38 -7.98,-9.03 z"
         id="path19" />
      <path
         class="cls-31"
         d="m 545.15,335.95 c -0.99,0.35 -3.26,-0.65 -2.1,1.99 -5.84,-2.3 -11.67,-4.66 -17.14,-7.78 -0.46,-0.7 -1.59,-1.28 -0.55,-2.27 0.55,-0.52 1.1,-0.28 1.46,0.36 5.79,3.33 12.66,4.09 18.33,7.71 z"
         id="path20" />
      <path
         class="cls-12"
         d="m 835.86,326.92 c 6.05,-3.59 12.89,-5.07 19.53,-7.23 -6.14,3.18 -11.8,7.24 -18.5,9.22 0.35,-1.02 0.02,-1.7 -1.03,-2 z"
         id="path21" />
      <path
         class="cls-99"
         d="m 526.83,328.24 c -2,-0.17 -0.9,1.14 -0.91,1.92 -6.14,-1.95 -11.66,-5.16 -17.08,-8.63 6.23,1.66 12.35,3.53 17.99,6.71 z"
         id="path22" />
      <path
         class="cls-85"
         d="m 771.97,373 c 3.17,0.22 4.87,1.61 4.03,5.04 -0.31,0.67 -0.63,1.34 -0.94,2.01 -2.58,-1.29 -4.27,-3.31 -5.02,-6.11 -0.34,-0.28 -0.53,-0.63 -0.58,-1.06 0.05,-0.43 0.24,-0.79 0.55,-1.09 1.03,-0.21 1.55,0.42 1.96,1.21 z"
         id="path23" />
      <path
         class="cls-75"
         d="m 835.86,326.92 c 1.48,0.08 1.82,0.74 1.03,2 -3.6,0.7 -6.22,3.86 -10.05,4 -0.72,-1.14 -1.96,-0.63 -2.94,-0.95 3.98,-1.68 7.97,-3.36 11.95,-5.05 z"
         id="path24" />
      <path
         class="cls-10"
         d="m 751.87,359.25 c 0.57,3.04 1.12,6.07 1.7,9.1 1.1,5.66 0.29,6.82 -5.48,7.77 -0.69,1.91 -1.76,3.55 -3.44,4.75 -3.48,4.17 -5.97,9.22 -10.75,12.25 -1.62,2.63 -3.33,3.5 -6.9,2.87 -3.26,-0.57 -6.96,1.8 -10.59,0.14 -5.41,-2.97 -9.76,-7.23 -13.97,-11.63 -1.46,-1.53 -1.96,-3.5 -0.8,-5.47 1.24,-2.11 3.2,-2.04 5.23,-1.39 1.44,0.46 2.88,0.71 4.38,0.4 4.84,-1.05 9.39,1.72 14.8,1.22 -1.45,-2.03 -3.1,-2.63 -4.89,-2.22 -4.95,1.15 -9.39,-1.17 -14.07,-1.86 -1.13,-0.17 -2.18,-0.8 -3.14,-1.47 -2.43,-1.69 -4.51,-3.7 -3.63,-6.98 0.82,-3.04 3.34,-3.89 6.21,-3.99 3.51,-0.12 6.97,-0.45 9.96,-2.61 4.62,-3.41 10.58,-2.78 15.54,-5.16 3.58,-0.48 6.91,-1.95 10.44,-2.66 5.15,-1.03 6.4,-0.31 8.04,4.94 0.26,0.82 0.84,1.38 1.37,1.99 z"
         id="path25" />
      <path
         class="cls-96"
         d="m 691,454.92 c -1.66,-1.01 -0.23,-1.88 0.13,-2.8 0.29,-0.71 0.29,-1.5 0.51,-2.23 0.55,-1.57 1.06,-3.17 0.99,-4.85 -0.22,-5.88 3.1,-9.18 8.13,-11.18 3.71,-1.48 6.91,-3.92 10.57,-5.49 2.14,-0.91 4.21,-2.07 6.61,-0.85 2.87,2.53 6.61,2.93 10.04,4.06 4.04,1.33 4.61,3.15 1.42,5.74 -11.18,9.09 -23.58,15.69 -38.03,17.87 -0.11,0.02 -0.26,-0.19 -0.39,-0.29 z"
         id="path26" />
      <path
         class="cls-52"
         d="m 716.76,395.1 c 2.98,0.34 6.14,2.24 8.72,-1.02 0.46,-0.58 1.25,-0.75 1.74,-0.18 3.47,3.99 4.37,0.32 5.77,-1.89 1.04,0.68 0.89,2.12 1.93,2.99 3.56,-3.65 7.72,-6.73 10.29,-11.28 1.63,-1.9 3.55,-3.46 5.62,-4.85 0.38,-0.28 0.76,-0.56 1.14,-0.85 1.87,-1.02 2.36,0.07 2.46,1.65 0.56,9.22 -0.6,18.22 -4.07,26.8 -0.93,2.29 -1.94,4.57 -2.87,6.87 -1.34,3.33 -3.2,4.61 -6.32,1.94 -1.57,-3.38 -3.43,-6.49 -7.43,-7.49 -3.16,-1.64 -4.89,-4.23 -4.78,-7.93 -1.68,0.53 -2.52,1.74 -3.89,1.9 -1.27,0.18 -2.37,-0.26 -3.41,-0.92 -1.99,-1.6 -4.83,-2.49 -4.91,-5.73 z"
         id="path27" />
      <path
         class="cls-46"
         d="M 612,414.01 607.08,401 c -1.35,-5.73 -2.93,-11.41 -2.45,-17.43 0.43,-5.38 1.7,-6.21 6.85,-4.03 3.88,4.77 8.42,8.95 12.54,13.52 0.88,0.75 1.97,1.17 2.89,1.87 4.6,3.48 4.97,5.71 1.85,11.34 -0.91,0.99 -2.08,1.94 -3.29,2.02 -3.83,0.26 -4.87,2.95 -5.74,5.93 -1.24,1.48 -1.24,3.78 -3.31,4.96 -1.55,-1.68 -3.02,-3.38 -4.41,-5.17 z"
         id="path28" />
      <path
         class="cls-57"
         d="m 751.87,359.25 c -3.25,-8.95 -9.54,-5.67 -15.5,-3.9 -1.4,0.42 -2.92,0.46 -4.38,0.67 -0.25,-1.02 0.05,-1.52 1.18,-1.25 -0.39,-0.93 -0.93,-0.1 -1.28,-0.01 -1.3,0.34 -2.52,0.4 -3.74,-0.23 -1.63,-1.47 -2.2,-3.97 -4.58,-4.71 -2.77,-1.24 -5.65,-2.11 -8.62,-2.69 -1.64,-0.45 -2.65,-1.28 -1.94,-3.17 0.26,-0.66 0.63,-1.27 1.02,-1.86 0.06,-4.52 4.38,-8.28 2.32,-13.18 0.28,-2.9 1.66,-4.82 4.63,-5.54 1.61,-0.39 2.81,-1.62 4.22,-2.42 1.73,-0.86 3.16,1.07 4.86,0.51 1.48,0.08 2.96,-0.19 4.44,-0.02 4.58,1.58 7.79,4.53 9.2,9.25 0.16,1.81 0.09,3.6 -0.69,5.29 -2.56,2.28 0.51,3.34 1.07,4.95 -0.1,0.21 -0.2,0.42 -0.3,0.63 -2.48,4.39 -5.66,8 -10.86,9.52 5.11,0.15 9.95,-0.27 14.55,-2.17 0.23,-0.03 0.46,-0.05 0.7,-0.07 2.35,3.07 2.6,6.88 3.72,10.39 z"
         id="path29" />
      <path
         class="cls-100"
         d="m 736.01,425.99 c -3.59,3.16 -7.94,1.65 -11.99,1.97 -3.97,-0.74 -5.25,-3.49 -5.35,-7.14 0.11,-9.83 3.58,-12.82 13.01,-11.92 4.15,0.39 5.38,3.33 6.94,6.18 0.79,1.45 0.77,3.2 1.26,4.78 0.21,2.98 0.37,5.94 -3.86,6.13 z"
         id="path30" />
      <path
         class="cls-42"
         d="m 769.97,373.01 c 0.02,0.31 0.04,0.63 0.06,0.94 -0.03,0.36 -0.05,0.72 -0.08,1.08 -2.62,5.89 -3.49,12.26 -5.01,18.45 -0.54,2.21 -0.58,4.57 -1.98,6.52 -1.12,-0.65 -0.93,-1.91 -1.28,-3.44 -1.26,1.18 0,6.55 -3.69,2.46 -1.42,-1.35 -0.98,-2.95 -0.67,-4.57 1.18,-6.12 0.58,-12.36 1.26,-18.52 0.13,-1.17 -0.21,-2.29 -1.48,-2.83 l -0.13,-3.09 c 1.77,-1.69 -0.25,-3.21 -0.24,-4.82 0,-0.09 -0.16,-0.5 -0.21,-0.33 -0.14,0.45 -0.21,0.9 -0.61,1.2 -1.46,-3.16 -1.91,-6.52 -2,-9.96 -0.06,-2.4 0.32,-4.73 1,-7.03 1.01,-4.54 4.05,-7.95 6.51,-11.68 0.2,-0.13 0.4,-0.27 0.59,-0.4 0.98,0.61 1.26,2.22 2.83,1.99 0,0 0.26,0.06 0.26,0.06 -0.51,2.62 -3.3,3.46 -4.38,5.66 -1,2.02 -2.83,3.86 -0.84,6.26 0.7,-0.65 1.4,-1.29 2.1,-1.94 -0.91,4.44 -0.84,8.82 0.82,13.09 q -2.71,0.86 -3.67,-1.63 c 1.56,2.11 0.94,7.44 7.2,7.2 2.62,-0.1 2.7,3.3 3.61,5.32 z"
         id="path31" />
      <path
         class="cls-106"
         d="m 683.73,473.21 c -1.91,-2.24 -1.45,-4.16 -0.59,-7.07 2.13,-7.21 7.74,-7.96 13.47,-9.21 14.83,-3.24 27.48,-10.49 38.32,-21.02 2.32,0.09 1.57,1.57 1.09,2.69 -0.6,1.38 -1.82,2.34 -2.73,3.52 -0.82,0.95 -1.62,1.91 -1.72,3.26 -0.09,0.43 -0.26,0.83 -0.5,1.19 -1.42,1.49 -3.11,2.54 -5.08,3.14 -8.46,4.99 -17.25,9.16 -26.87,11.47 -2.25,0.54 -4.55,0.93 -6.77,1.58 -0.73,0.21 -1.93,0.3 -1.65,1.41 0.2,0.79 1.37,0.81 2.06,1.25 1.6,2.22 4.96,0.44 6.47,2.85 -1.49,2.87 -4.24,1.78 -6.51,1.98 -2.73,0.24 -5.61,-0.27 -7.71,2.16 -0.36,0.36 -0.79,0.63 -1.27,0.79 z"
         id="path32" />
      <path
         class="cls-104"
         d="m 612.04,380.57 c -6.3,-2.19 -6.4,-2.17 -6.08,4.27 0.27,5.39 0.74,10.77 1.12,16.16 -1.7,-0.87 -0.46,-3.38 -2.32,-4.17 -1.63,-3.73 -1.3,-7.81 -2.05,-11.7 -0.27,-1.38 0.47,-3.08 -1.18,-4.05 -1.15,-0.03 -2.27,0.71 -3.44,0.14 -3.46,-3.38 -1.82,-6.8 -0.07,-10.22 -0.61,-1.32 -1.57,-2.62 -0.45,-4.08 0.14,-0.18 0.92,-0.04 1.29,0.15 1.49,0.75 1.11,2.23 1.24,3.5 0.05,0.49 -0.07,0.99 -0.02,1.48 0.11,1.22 -0.65,3.27 0.99,3.36 2.34,0.14 0.89,-2.17 1.38,-3.2 2.42,-5.15 1.92,-10.9 3.63,-16.15 1.75,-8.11 5.52,-15.2 10.91,-21.47 4,0.21 2.97,2.56 1.79,4.63 -1.76,3.07 -4.51,5.6 -5,9.34 0.23,1.58 1.46,3.09 0.37,4.77 -6.14,4.81 -5.69,12.02 -6.33,18.62 -0.28,2.94 4.4,3.96 4.68,7.29 0,0.5 -0.15,0.95 -0.46,1.34 z"
         id="path33" />
      <path
         class="cls-19"
         d="m 618.83,413.85 c 0.56,-5.57 5.32,-6.2 9.23,-7.83 2.42,-2.03 4.95,-3.93 7.32,-6.03 2.79,-2.27 5.26,-4.88 7.84,-7.37 2.04,-1.97 4.28,-3.55 7.35,-3.1 0.6,0.89 0.67,2.11 1.7,2.75 -1.9,3.87 -6.01,5.36 -8.92,8.13 -1.53,1.46 -3.25,2.72 -4.63,4.35 -1.63,1.46 -3.85,1.74 -6,3.09 3.31,-0.57 6.29,-1.12 9.31,-0.67 0.94,0.23 1.71,0.7 2.27,1.5 0,2.54 0.33,5.03 1.22,7.43 -1.65,2.99 -3.52,0.19 -5.28,0.2 -2.92,-2.24 -5,-5.68 -9.71,-4.95 -6.47,1.01 -9.71,7.41 -6.09,12.97 0.99,1.52 2.38,2.77 3.15,4.46 0.61,3.08 -0.43,4.33 -3.58,3.19 -0.34,-2.89 -2.28,-4.87 -3.98,-6.99 -0.35,-3.72 -0.54,-7.46 -1.18,-11.15 z"
         id="path34" />
      <path
         class="cls-92"
         d="m 641.01,415.99 c 1.33,-2.38 2.67,2.43 4,0 0.89,-0.28 1.27,0.24 1.53,0.97 -0.52,3.5 -1.76,7.05 0.78,10.33 -0.23,1.08 -1.09,1.46 -1.98,1.81 -4.06,2.59 -8.81,3.55 -14.08,5.76 11.54,9.03 22.88,16.65 37.46,17.6 0.49,0.02 0.91,0.19 1.26,0.53 -0.2,2.32 -1.37,3.13 -3.69,2.64 -16.55,-3.5 -31.2,-10.37 -42.3,-23.63 1.4,-0.6 3.8,-0.2 3.03,-3 0.11,-0.12 0.23,-0.33 0.34,-0.34 8.2,-0.29 12.02,-5.29 13.64,-12.66 z"
         id="path35" />
      <path
         class="cls-20"
         d="m 624.01,434.99 c 11.29,11.16 24.54,18.79 40.12,22.14 3.98,0.86 8.13,1.18 10.81,4.86 -4.75,2.7 -9.33,0.33 -13.85,-0.67 -9.22,-2.03 -17.58,-6.3 -25.87,-10.63 -2.64,-0.74 -4.2,-3.05 -6.44,-4.39 -0.75,-0.93 -1.07,-2.08 -1.59,-3.12 -0.77,-1.8 -2.42,-2.98 -3.35,-4.63 -0.62,-1.11 -2.24,-2.51 0.18,-3.56 z"
         id="path36" />
      <path
         class="cls-1"
         d="m 719.94,421.01 c -0.79,3.57 2.6,4.7 4.07,6.95 2.85,2.02 6.1,0.55 9.13,1.07 1.31,0.23 2.74,0.42 3.3,1.78 0.45,1.1 -0.66,1.75 -1.31,2.44 -11.59,12.37 -26.01,19.41 -42.5,22.51 -0.47,0.09 -1.08,-0.55 -1.63,-0.85 15.14,-3.22 28.49,-9.81 40.09,-20.84 -4.2,-1.43 -7.78,-3.06 -11.54,-3.75 -2.02,-0.37 -1.26,-1.44 -1.6,-2.32 -1.33,-2.41 -0.33,-4.61 0.59,-6.82 0.41,-0.47 0.87,-0.53 1.39,-0.18 z"
         id="path37" />
      <path
         class="cls-57"
         d="m 669.98,452.98 c -0.3,0 -0.59,-0.02 -0.89,-0.02 -1.09,-0.29 -1.54,-1.07 -1.62,-2.13 1.05,-3.5 2.7,-7.03 -0.43,-10.35 -0.62,-0.83 -0.4,-1.68 -0.09,-2.54 0.84,-1.05 0.7,-2.19 0.29,-3.36 0,-0.7 0.21,-1.31 0.7,-1.81 2.25,-0.29 4.56,-0.35 6.52,-1.74 3.66,-1.59 7.33,-1.63 10.99,-0.03 1.96,1.39 4.26,1.51 6.53,1.77 0.53,0.53 0.69,1.19 0.67,1.91 -0.05,0.91 -0.3,1.82 -0.09,2.74 -0.88,4.49 -1.83,8.98 -0.58,13.57 -0.29,0.38 -0.58,0.77 -0.86,1.15 -0.46,-0.85 -1.24,-1.12 -2.14,-1.16 -0.17,-0.17 -0.35,-0.34 -0.53,-0.51 -0.86,-1.52 -0.79,-3.2 -0.74,-4.84 0.11,-3.8 -1,-7.23 -4.77,-8.35 -2.91,-0.86 -6.41,-0.82 -8.74,1.85 -2.65,3.04 -2.37,6.74 -1.26,10.32 0.51,1.66 2.35,2.89 1.53,4.97 -0.16,0.18 -0.32,0.37 -0.48,0.55 -1.97,0.61 -2.22,-2.25 -4.02,-1.99 z"
         id="path38" />
      <path
         class="cls-93"
         d="m 757.12,373.08 c 1.33,-0.34 3.47,-3.18 2.95,1.36 -0.93,8.16 -1.41,16.37 -2.07,24.56 -0.04,1.36 -0.09,2.72 -0.13,4.09 -1.23,6.42 -2.98,12.63 -6.89,18.02 -2.58,0.28 -2.64,4.75 -6.05,3.64 -0.09,-0.03 -0.15,-0.25 -0.15,-0.37 0,-0.15 0.08,-0.31 0.12,-0.46 9.89,-15.54 13.6,-32.58 12.22,-50.83 z"
         id="path39" />
      <path
         class="cls-59"
         d="m 635.07,449.88 c 1.87,-1.55 2.99,0.28 4.24,1.05 10.94,6.74 22.79,10.48 35.63,11.07 0.02,0.66 0.04,1.31 0.06,1.97 -1.69,3.18 -4.68,3.28 -7.72,3.28 -4.19,-0.39 -7.87,-2.14 -11.26,-4.49 -2.07,-1.43 -4.19,-2.52 -6.72,-2.72 -3.61,-0.98 -6.4,-3.57 -9.78,-5.02 -1.66,-1.56 -4.51,-2.09 -4.45,-5.14 z"
         id="path40" />
      <path
         class="cls-1"
         d="m 736.01,425.99 c 2.59,-1.2 3.21,-3.37 2.91,-5.98 -0.27,-2.43 -1.79,-5.3 2.22,-6.2 2.97,3.15 4.37,2.36 6.08,-1.54 4.2,-9.61 7.17,-19.39 6.73,-29.98 -0.07,-1.63 0.86,-3.85 -1.96,-4.28 1.32,-1.38 2.9,-2.57 3.01,0.59 0.66,17.58 -2.68,33.92 -15.42,47.11 -0.72,0.75 -2.09,4.51 -3.57,0.29 z"
         id="path41" />
      <path
         class="cls-35"
         d="m 599.1,399.16 c 5.33,0.13 6.83,3.84 8.08,8.18 1.71,5.93 4.94,11.21 7.89,16.6 -1.03,2.65 -2.6,-0.53 -3.8,0.36 -3.91,-2.6 -4.6,-7.11 -6.53,-10.9 -0.87,-1.7 -0.48,-4.02 -2.53,-5.14 -2.91,-1.52 -2.43,-4.79 -3.72,-7.14 -0.11,-0.75 0,-1.43 0.61,-1.95 z"
         id="path42" />
      <path
         class="cls-64"
         d="m 744.9,423.91 c 1.82,1.11 2.09,-0.77 2.88,-1.54 0.67,-0.65 0.55,-2.57 2.31,-1.34 0.08,5.11 -3.98,8.12 -6.3,11.95 -1.94,3.21 -5.1,5.59 -7.89,8.16 -1.08,0.99 -2.29,2.01 -3.95,1.03 0.05,-2.53 5,-2.75 2.97,-6.27 3.33,-4 6.65,-8 9.98,-11.99 z"
         id="path43" />
      <path
         class="cls-37"
         d="m 611.96,424.01 c 0.99,-1.85 2.11,1.8 3.11,-0.07 2.98,3.68 5.96,7.36 8.94,11.04 -0.92,3.84 4.09,4.62 4.12,7.98 -1.04,0.56 -1.85,0 -2.68,-0.52 -4.05,-3.8 -8.13,-7.59 -11.23,-12.25 -1.23,-1.86 -2.94,-3.6 -2.27,-6.18 z"
         id="path44" />
      <path
         class="cls-97"
         d="m 598.02,371.01 c 0.89,3.31 -2.48,7 0.89,10.09 2.3,4.39 2.92,9.03 2.07,13.89 0.09,1.49 -0.75,2.37 -1.96,3.02 -1.63,0.13 -1.81,-1.15 -2.18,-2.24 -0.5,-6.77 -2.29,-13.37 -2.57,-20.18 -0.08,-1.95 -0.2,-3.66 1.94,-4.55 0.6,-0.01 1.2,-0.02 1.8,-0.03 z"
         id="path45" />
      <path
         class="cls-20"
         d="m 666.93,466.05 c 2.92,0.2 5.59,-0.57 8.06,-2.09 2.98,3.1 4.59,6.33 1.03,10.09 -3.06,-0.4 -6.27,0.69 -9.19,-0.95 1.36,-1.88 3.64,-1.06 5.82,-1.85 -3.91,-2.32 -8.63,0.75 -11.84,-2.65 1.04,-3.26 4.62,-0.4 6.12,-2.55 z"
         id="path46" />
      <path
         class="cls-48"
         d="m 755.94,348.98 c -0.21,2.5 -0.67,4.93 -2.01,7.11 -3.04,-5.98 -6.08,-11.95 -9.12,-17.93 2.46,-2.67 3.16,0.31 4.46,1.37 1.12,1.76 1.12,4.27 3.49,5.21 1.41,1.15 2.12,2.83 3.18,4.24 z"
         id="path47" />
      <path
         class="cls-53"
         d="m 618.83,413.85 c 3.49,3.39 2.6,7.24 1.18,11.15 -4.15,-2.59 -5.95,-6.88 -8.01,-10.99 1.48,1.3 2.96,2.6 4.7,4.13 0.32,-1.57 0.35,-3.46 2.12,-4.29 z"
         id="path48" />
      <path
         class="cls-2"
         d="m 601.2,379.08 c 1.82,-0.06 2.9,0.92 2.8,2.65 -0.3,5.07 1.83,10.01 0.76,15.11 -1.51,0.27 -2.16,-0.73 -2.71,-1.85 -0.96,-5.26 -3.15,-10.46 -0.85,-15.9 z"
         id="path49" />
      <path
         class="cls-57"
         d="m 688.99,450.97 c 0,5.7 -6.9,5.34 -8.5,9.65 -2.09,-1.97 -5.01,-2.98 -6.49,-5.65 l 0.03,-0.03 c 4.95,-1.46 10.04,-2.37 14.95,-3.99 H 689 Z"
         id="path50" />
      <path
         class="cls-63"
         d="m 597.99,396.01 c 0.34,0.67 0.69,1.33 1.03,2 0.02,0.38 0.05,0.77 0.07,1.15 0.01,0.59 0.03,1.17 0.04,1.76 0.39,0.77 -0.02,1.2 -0.65,1.54 -1.76,0.05 -3.15,0.98 -4.51,1.99 -0.45,0.12 -0.9,0.12 -1.35,0.02 -0.69,-0.29 -1.12,-0.8 -1.39,-1.48 -0.92,-4.22 2.58,-5.83 4.91,-8.04 0.65,-0.62 1.39,0.39 1.84,1.06 z"
         id="path51" />
      <path
         class="cls-6"
         d="m 601.2,379.08 c 0.28,5.3 0.57,10.6 0.85,15.9 -0.36,0 -0.71,0 -1.07,0.01 -1.64,-4.49 -1.51,-9.24 -2.07,-13.89 0.76,-0.67 1.52,-1.35 2.28,-2.02 z"
         id="path52" />
      <path
         class="cls-87"
         d="m 748.98,340.01 c -1.63,-0.08 -1.93,-3.18 -4.18,-1.85 -0.6,-0.72 -1.2,-1.45 -1.8,-2.17 -1.41,-1.65 -0.19,-3.31 -0.03,-4.97 4.34,1.11 5.49,4.67 6.43,8.4 -0.14,0.2 -0.28,0.39 -0.42,0.59 z"
         id="path53" />
      <path
         class="cls-70"
         d="m 750.84,378.86 c -1.1,2.2 -2.89,3.75 -4.82,5.18 -1.34,-1.03 -1.5,-2.65 -2.07,-4.07 1.38,-1.28 2.77,-2.57 4.15,-3.85 -0.02,1.84 0.95,2.7 2.74,2.74 z"
         id="path54" />
      <path
         class="cls-89"
         d="m 755.92,366.05 v -4.4 q 3.12,6.44 1.06,8.34 c -0.35,-1.32 -0.71,-2.63 -1.06,-3.95 z"
         id="path55" />
      <path
         class="cls-57"
         d="m 744.07,340.94 c 1.85,2.39 3.07,5.09 4.08,7.92 0,0 -0.3,0.23 -0.3,0.23 -3.9,-1.29 -5.54,-3.75 -4.11,-7.83 l 0.33,-0.31 z"
         id="path56" />
      <path
         class="cls-106"
         d="m 694.03,472.99 c -3.21,1.75 -6.68,0.76 -10.03,0.96 -0.09,-0.25 -0.18,-0.5 -0.27,-0.75 0,0 0.35,-0.33 0.35,-0.33 3.34,-1.98 6.66,-2.08 9.95,0.11 z"
         id="path57" />
      <path
         class="cls-11"
         d="m 769.97,373.01 c -1.2,-0.45 -1.82,-1.33 -2,-2.58 -0.12,-0.86 -0.59,-1.98 -1.33,-1.86 -10,1.62 -6.19,-7.78 -10.43,-11.5 4.39,0.06 2.13,6.17 6.61,5.05 2.33,2.73 4.87,5.22 8.07,6.94 1.05,1.34 0.36,2.26 -0.74,3.08 -0.08,0.29 -0.14,0.58 -0.19,0.88 z"
         id="path58" />
      <path
         class="cls-9"
         d="m 770.16,372.13 c 0.25,-1.03 0.49,-2.05 0.74,-3.08 3.35,1.02 6.67,-0.73 10.02,-0.13 -2.64,2.11 -7.22,-0.02 -8.96,4.08 -0.6,-0.29 -1.2,-0.58 -1.81,-0.87 z"
         id="path59" />
      <path
         class="cls-91"
         d="m 597.99,396.01 c -4.07,0.63 -5.52,3.49 -6.11,7.11 -1.99,0.07 -1.58,-2.06 -2.63,-2.85 l -0.09,-2.48 c 1.2,-6.17 -0.64,-12.32 -0.11,-18.51 0.12,-1.47 -0.22,-2.92 0.87,-4.14 -1.08,-6.25 3.63,-3.6 6.3,-4.1 -1.62,4.32 0.03,8.57 0.36,12.83 0.31,4.06 1.75,7.99 1.42,12.13 z"
         id="path60" />
      <path
         class="cls-43"
         d="m 604.1,349.91 c -0.2,-3.22 -1.8,-5.79 -3.83,-8.14 -1.15,-1.32 -2.71,-2.42 -2.09,-4.54 0,0 0,-0.06 0,-0.06 5.55,-2.6 8.18,-1.47 10.84,4.64 -0.06,5.74 -1.19,7.61 -4.91,8.1 z"
         id="path61" />
      <path
         class="cls-80"
         d="m 604.1,349.91 c 2.98,-1.8 3.89,-4.65 3.97,-7.91 1.89,0.21 1.81,-1.17 1.93,-2.4 0.49,-2.04 1.41,-3.77 3.3,-4.85 1.22,0.98 2.79,-2.51 3.88,0.3 -4.32,6.68 -7.68,13.86 -11.11,21.01 -1.45,-1.8 -1.38,-4.08 -1.98,-6.16 z"
         id="path62" />
      <path
         class="cls-34"
         d="m 589.92,375.14 c 0.37,6.28 0.78,12.56 1.06,18.84 0.07,1.49 0.85,3.54 -1.82,3.81 -1.38,-5.33 -3.24,-10.62 -0.91,-16.16 0.96,-2.28 -2.95,-4.36 -0.3,-6.73 0.66,0.08 1.31,0.16 1.97,0.25 z"
         id="path63" />
      <path
         class="cls-81"
         d="m 574.04,371 c -2.76,-1.63 -4.6,-4.18 -6.44,-6.66 -0.59,-0.8 -1.77,-3.15 1.37,-2.27 2.26,5.6 7.05,8.17 12.52,10.03 -2.95,1.38 -5.11,-0.36 -7.45,-1.1 z"
         id="path64" />
      <path
         class="cls-33"
         d="m 594.9,339.08 c 0.38,0.3 0.76,0.6 1.14,0.91 1.37,2.84 5.48,4.34 3.95,8.88 -1.75,-6.59 -6.87,-8.92 -13.32,-10.35 q 3.5,-1.44 8.23,0.56 z"
         id="path65" />
      <path
         class="cls-24"
         d="m 580.53,337.79 c -3.37,1.46 -6.23,3.84 -9.68,4.94 2.17,-3.79 5.4,-5.51 9.68,-4.94 z"
         id="path66" />
      <path
         class="cls-76"
         d="m 694.03,472.99 c -3.32,-0.04 -6.63,-0.07 -9.95,-0.11 -0.24,-3.67 2.44,-3.61 4.91,-3.91 3.33,-0.4 6.84,0.97 10.02,-0.99 3.49,-3.25 8.48,-0.9 12.2,-3.29 4.46,-2.81 9.73,-3.81 14.3,-6.36 4.87,-2 9.3,-4.62 12.67,-8.79 1.07,-1.08 2.15,-2.15 2.71,-3.61 10.31,-9.13 18.09,-20.1 23.56,-32.72 1.73,-4 2.97,-7.94 2.79,-12.58 -0.25,-6.27 2.31,-12.26 4.14,-18.23 0.53,-1.74 1.34,-0.3 1.69,0.61 -2.12,3.16 0.64,6.66 -0.41,9.61 -2.1,5.9 -2.32,12.19 -4.49,18.04 -12.93,34.81 -37.37,55.86 -74.12,62.31 z"
         id="path67" />
      <path
         class="cls-59"
         d="m 589.25,400.27 c 2.46,-0.51 1.53,2.11 2.63,2.85 0.3,0.36 0.59,0.71 0.89,1.07 3.3,2.4 2.8,6.56 4.34,9.79 5.1,10.66 11.63,20.1 20.26,28.13 0.97,0.91 1.83,1.93 2.36,3.19 0.51,1.48 0.79,3.07 2.07,4.18 3.31,4.31 7.93,6.75 12.72,8.93 4.51,2.67 9.89,3.35 14.28,6.28 2.25,1.32 4.76,1.15 7.22,1.39 1.77,0.18 3.65,0.4 4.97,1.9 2.67,1.93 5.71,0.59 8.56,0.97 1.44,0.19 2.97,-0.26 4.31,0.61 0.83,0.54 1.77,1.19 1.67,2.24 -0.12,1.34 -1.37,1.13 -2.31,1.16 -2.13,0.07 -4.25,0.09 -6.38,0.13 -15.56,-1.54 -29.43,-7.73 -41.8,-16.81 -18.42,-13.53 -30.16,-31.84 -35.69,-54.05 -0.16,-0.63 -0.07,-1.31 -0.1,-1.97 z"
         id="path68" />
      <path
         class="cls-18"
         d="m 726.04,459.05 c -4.13,3.47 -9.91,3.44 -14.15,6.68 -1.19,-1.59 -0.46,-2.79 0.79,-3.88 6.22,-2.56 11.91,-6.05 16.98,-9.69 -5.1,3.29 -10.41,7.19 -16.7,9.31 -2.93,1.45 -2.65,-0.53 -2.54,-2.35 3.37,-4.32 8.98,-5.25 12.98,-8.61 3.25,-0.42 5.8,-1.96 7.54,-4.78 0,-0.26 0.02,-0.52 0.03,-0.79 1.99,-2.61 4.25,-4.55 7.85,-3.09 1.42,1.7 2.05,-1.19 3.78,-0.29 -1.17,1.27 -2.31,2.47 -3.39,3.71 -0.35,0.4 -1.14,1.02 -0.05,1.33 0.48,0.14 1.16,-0.43 1.74,-0.67 0.12,1.68 -0.07,3.23 -1.78,4.12 -4.08,3.4 -8.58,6.19 -13.07,9 z"
         id="path69" />
      <path
         class="cls-26"
         d="m 738.81,441.85 c -2.81,0.54 -5.64,1.02 -7.85,3.09 -1.94,-1.73 0.72,-1.82 0.99,-2.77 8.4,-5.03 13.49,-12.9 18.14,-21.15 4.04,-5.35 5.41,-11.86 7.78,-17.94 -0.01,9.69 -4.79,17.67 -9.49,25.56 -2.77,4.65 -6.35,8.82 -9.57,13.2 z"
         id="path70" />
      <path
         class="cls-61"
         d="m 745.76,436.3 c 1.76,-3.06 2.98,-5.84 4.78,-8.17 4.11,-5.29 6.74,-11.22 8.48,-17.61 0.39,-1.42 0.86,-2.49 2.74,-1.66 1.12,0.49 2.57,0.73 1.59,2.26 -5.43,8.41 -8.39,18.44 -16.39,25.18 -0.09,0.07 -0.29,0 -1.2,0 z"
         id="path71" />
      <path
         class="cls-76"
         d="m 762.97,399.99 c 0.22,-7.98 3.28,-15.42 4.36,-23.24 0.18,-1.29 1.29,-1.85 2.62,-1.73 0.02,8.64 -4.06,16.43 -5.14,24.84 -0.56,0.72 -1.14,0.7 -1.74,0.06 l -0.1,0.06 z"
         id="path72" />
      <path
         class="cls-30"
         d="m 763.07,399.93 c 0.58,-0.02 1.16,-0.04 1.74,-0.06 0.06,1.3 0.11,2.6 0.17,3.9 0.11,2.36 -1.77,1.47 -2.76,1.48 -1.98,0.03 -1.27,-1.55 -0.95,-2.45 0.37,-1.04 1.18,-1.92 1.8,-2.87 z"
         id="path73" />
      <path
         class="cls-58"
         d="m 652.25,392.17 c -1.72,-0.06 -1.82,-1.03 -1.33,-2.34 -0.06,-0.5 -0.02,-0.99 0.22,-1.44 0.96,-1.8 3.48,-3.19 2.11,-5.63 -1.56,-2.79 -4.36,-1.52 -6.75,-1.55 -4.83,-0.06 -9.54,0.94 -14.3,1.49 -1.45,0.17 -3.27,0.33 -3.5,-1.74 -0.19,-1.78 1.24,-2.75 2.78,-2.92 4.15,-0.48 8.05,-1.85 12.01,-2.99 4.74,-0.46 9.71,-0.06 13.66,-3.53 1.08,-0.95 2.6,-1.74 2.21,-3.58 -0.42,-1.98 -1.87,-3.43 -3.61,-3.76 -6.76,-1.3 -13.16,-3.96 -19.97,-5.01 -2.48,-0.49 -4.95,-1.02 -7.24,-2.15 -0.67,-1.36 -5.25,-0.18 -2.49,-3.79 1.83,-0.69 3.71,-0.53 5.6,-0.4 0.53,0.05 1.05,0.15 1.56,0.28 6.86,0.12 13.43,2.22 20.19,3.01 0.31,0.08 0.63,0.18 0.92,0.33 3.27,1.65 6.42,0.46 8.54,-1.64 2.48,-2.45 -0.71,-4.69 -1.62,-6.97 -0.07,-1.67 0.15,-3.41 -1.06,-4.84 -3.33,-5.03 -8.68,-8.22 -11.95,-13.29 -0.41,-1.1 -1.02,-2.23 0.38,-3.11 0.46,-0.12 0.92,-0.13 1.38,-0.03 1.09,0.46 1.88,1.29 2.72,2.07 2.22,2.54 5.34,4.08 7.46,6.72 3.67,2.46 6.8,6.72 12.12,3.13 3.6,-2.43 4.19,-6.04 4.44,-9.88 0.34,-2.1 -0.88,-3.19 -2.4,-4.41 -6.84,-5.49 -6.66,-14.56 0.4,-19.56 1.73,-1.23 3.06,-2.43 3.11,-4.64 0.19,-0.77 0.52,-1.45 1.19,-1.93 1.15,-0.64 0.67,-2.03 1.45,-3.11 1.18,1.96 -0.48,4.51 1.47,6.09 1.17,1.17 2.15,2.49 3.44,3.57 6.66,5.58 6.92,12.86 0.74,19.24 -1.03,1.06 -2.35,1.91 -2.25,3.64 -0.66,4.43 -0.41,8.48 4.34,10.72 3.93,2.29 6.99,0.15 10.06,-1.96 1.9,-1.3 3.18,-3.47 5.64,-3.97 1.02,-0.03 1.89,0.2 2.32,1.26 -0.31,2.34 -2.36,3.41 -3.67,5.03 -1.75,2.49 -5.18,4.1 -4.17,8.02 0.14,0.45 0.19,0.9 0.17,1.37 -0.05,0.33 -0.15,0.65 -0.33,0.93 -3.23,5.08 -2.31,7.77 3.53,7.56 4.12,-0.14 8.7,0.84 12.58,-1.78 4.44,-1.15 8.9,-2.14 13.48,-0.8 h 6.67 c -1.22,1.01 -1.88,1.57 -2.55,2.12 -2.77,2.34 -6.4,1.9 -9.6,2.86 -1.89,0.56 -3.7,1.08 -5.3,2.22 -4.77,-0.94 -8.96,1.66 -13.44,2.44 -4.64,0.81 -5.02,5.33 -1.31,8.4 2.79,2.31 5.98,3.44 9.56,3.58 1.6,0.06 4,-0.4 4.01,1.77 0.02,2.14 -2.34,0.81 -3.6,1.18 -0.48,0.14 -0.96,0.18 -1.3,0.59 -1.84,1.44 -3.41,0 -5.06,-0.48 -1.36,-0.39 -2.64,-0.41 -3.53,0.87 -1,1.43 -0.78,2.87 0.46,3.99 4.49,4.04 8.71,8.42 13.88,11.65 1.75,1.62 3.5,3.24 5.25,4.86 0.35,0.92 -0.21,1.32 -0.92,1.65 -2.8,0.55 -4.23,-1.96 -6.39,-2.85 -5.31,-3.99 -11.85,-6.18 -15.99,-11.95 -2.03,-2.83 -4.99,-1.09 -6.01,3.33 -2.12,3.72 -2.75,7.19 1.58,9.9 3.68,6.41 2.32,13.88 -3.55,19.61 -5.85,5.71 -11.7,6.09 -19.71,1.29 -3.07,-2.27 -5.32,-5.1 -6.03,-8.96 -0.34,-2.28 -0.33,-4.57 -0.05,-6.86 0.07,-0.48 0.2,-0.95 0.35,-1.42 1.39,-4.96 4.33,-8.95 9.24,-10.3 4.57,-1.25 4.86,-3.57 3.55,-7.21 -0.34,-0.93 -0.67,-1.87 -1.12,-3.14 -0.32,1.94 -0.32,3.91 -2.9,3.21 -3.14,-3.68 -6.79,-2.83 -10.52,-1.19 -2.19,1.53 -3.19,4.21 -5.38,5.7 -1.75,1.19 -3.58,2.41 -5.89,1.39 z"
         id="path74" />
      <path
         class="cls-96"
         d="m 600.07,333.97 c 15.4,-28.15 48.07,-45.56 75.63,-45.34 -0.25,2.96 -3.71,2.41 -4.73,4.38 -0.93,1.99 -2.73,2.22 -4.61,2.28 -1.99,0.07 -3.98,0 -5.98,0.05 -5.85,0.13 -11.35,0.75 -16.11,5.09 -3.51,3.2 -8.59,4.27 -12.54,7.06 -6.44,4.04 -12.89,7.99 -15.7,15.77 -1.19,3.29 -5.72,3.99 -6.79,7.63 -2.1,3.9 -5.29,4.57 -9.2,3.08 z"
         id="path75" />
      <path
         class="cls-21"
         d="m 613.96,334.99 c -1.27,1.5 -2.74,2.87 -2.94,5 -3.26,0.19 -3.29,-1.68 -2.81,-4.13 0.42,-2.12 1.75,-3.48 3.25,-4.81 2.36,-5.13 5.69,-9.11 11.11,-11.46 3.48,-1.51 5.58,-5.12 8.59,-7.51 4.17,-3.32 8.52,-6.34 13.17,-8.94 2.13,-1.26 4.61,-0.51 6.83,-1.23 4.5,-1.64 7.94,-5.51 12.92,-6.12 2.78,-1.56 5.91,0.2 8.74,-0.92 0.7,-0.64 1.41,-1.28 2.11,-1.92 3.57,-1.37 3.65,0.91 3.54,3.38 -0.93,3.23 -3.09,4.66 -6.42,5.22 -15.37,2.55 -29.73,7.61 -41.94,17.7 -1.72,1.23 -3.29,2.62 -4.55,4.34 -4.64,3.02 -7.21,8.14 -11.61,11.4 z"
         id="path76" />
      <path
         class="cls-54"
         d="m 682.99,328 c -0.75,-1.66 -1.75,-3 1.02,-4.2 6.83,-2.97 7.2,-15.66 0.16,-18.48 -2.39,-0.96 -2.14,-2.51 -2.19,-4.27 0.39,-0.03 0.77,-0.07 1.16,-0.1 0.52,-0.46 1.19,-0.86 1.81,-0.6 10.65,4.6 22.71,5.13 32.75,11.54 3.92,2.51 8.01,4.75 11.47,7.91 0.62,0.57 1.08,1.26 0.84,2.19 -1.97,2.5 -2.84,-0.55 -4.26,-0.84 -0.94,0.64 -1.71,0.23 -2.44,-0.4 -1.19,-1.36 -2.72,-2.23 -4.36,-2.93 -6.96,-3.88 -14.09,-7.33 -22.05,-8.6 -1.99,-0.32 -4.64,-1.61 -5.26,1.64 -0.52,2.72 -1.8,6.08 2.42,7.42 0.58,0.44 1,0.99 1.23,1.68 0.01,1.76 -1.69,2.02 -2.59,2.99 -2.32,2.66 -5.08,4.64 -8.5,5.65 -0.48,-0.04 -0.89,-0.23 -1.21,-0.6 z"
         id="path77" />
      <path
         class="cls-102"
         d="m 730,321.99 c -10.74,-9.07 -22.91,-15.18 -36.91,-17.12 -3.75,-0.52 -6.27,-3.59 -9.96,-3.92 -1.63,-2.12 -1.14,-4.56 -1.08,-6.94 0.67,-0.17 1.51,-0.18 1.88,0.3 4.65,6.04 11.66,6.31 18.27,7.54 1.31,0.24 2.57,0.65 3.76,1.23 7.92,3.07 15.55,6.73 22.41,11.8 2.44,1.81 5.52,3.29 5.66,7.03 -1.32,1.1 -2.67,1.04 -4.03,0.09 z"
         id="path78" />
      <path
         class="cls-103"
         d="m 650.96,303.1 c -1.8,1.7 -4.18,-0.59 -6.01,0.87 -3,0.18 -4.86,2.81 -7.59,3.57 -1.8,-0.12 -3.4,1.01 -5.22,0.84 -0.68,-0.28 -1.13,-0.76 -1.26,-1.5 1.69,-2.24 4.39,-2.85 6.68,-4.11 3.17,-1.73 6.5,-3.06 9.17,-5.76 3.74,-3.8 8.94,-2.27 13.54,-2.93 3.56,-0.51 7.3,0.85 10.71,-1.07 0.11,1.13 0.52,1.95 1.85,1.87 -2.61,2.15 -6.08,0.63 -8.85,2.06 -2.57,-1.34 -4.79,-0.66 -6.81,1.17 -1.97,1.78 -3.99,3.5 -6.2,4.98 z"
         id="path79" />
      <path
         class="cls-59"
         d="m 705.99,304.03 c -3.69,-0.68 -7.35,-1.56 -11.06,-1.99 -5.63,-0.65 -9.29,-4.23 -12.88,-8.03 0.33,-0.37 0.65,-0.75 0.98,-1.12 0.3,0.09 0.6,0.1 0.91,0.05 4.18,0.32 7.94,2.35 12.06,2.89 3.84,1.74 8.61,2.05 10.5,6.79 0.02,0.54 -0.15,1.01 -0.51,1.41 z"
         id="path80" />
      <path
         class="cls-94"
         d="m 612.12,332.1 c -3.52,2.91 -3.88,5.48 -1.1,7.89 -0.06,1.24 0.24,2.71 -1.19,3.31 -0.34,0.14 -1.16,-0.83 -1.76,-1.3 -1.63,-5.03 -5.48,-5.53 -9.9,-4.84 0.63,-1.06 1.27,-2.13 1.9,-3.19 2.97,-0.73 6.71,0.11 8.04,-3.96 1.81,-0.22 2.96,0.83 4.01,2.08 z"
         id="path81" />
      <path
         class="cls-102"
         d="m 677.96,296.95 c 0.22,-2.26 0.07,-4.24 -3.02,-3.99 6.99,-2.83 2.86,3.32 4.12,5.11 -0.04,0.62 -0.08,1.25 -0.12,1.87 -0.47,0.4 -0.91,0.37 -1.31,-0.11 -0.57,-1.04 -0.39,-1.99 0.33,-2.88 z"
         id="path82" />
      <path
         class="cls-96"
         d="m 685.81,291.19 c -0.71,-0.37 -1.43,-0.73 -2.14,-1.1 1.43,-3.56 4.31,-1.72 6.43,-1.45 29.65,3.79 52.65,18.24 68.9,43.36 1.05,1.95 -0.28,3.11 -1.73,3 -2.33,-0.18 -4.89,-0.71 -6.11,-3.14 -0.71,-1.42 -0.81,-3.18 -2.62,-3.82 -1.92,-1.1 -3.81,-2.47 -4.5,-4.52 -2.85,-8.49 -10.16,-12.36 -16.93,-16.82 -5.31,-3.06 -10.94,-5.5 -15.88,-9.29 -3.26,-2.5 -7.68,-1.61 -11.59,-1.99 -2.63,-0.25 -5.3,-0.41 -7.95,-0.37 -2.92,0.04 -4.59,-1.56 -5.88,-3.86 z"
         id="path83" />
      <path
         class="cls-87"
         d="m 749.03,326.94 c 2.27,0.25 2.91,1.67 3.01,3.77 0.15,3.08 4.12,1.12 5.08,3.54 0.11,0.28 1.92,-0.84 1.88,-2.24 1.01,1.66 2.02,3.32 3.03,4.99 0,0 -0.34,0.19 -0.34,0.19 -4.46,1.1 -8.21,3.07 -9.72,7.83 -2.3,-0.75 -2.64,-1.3 -2.99,-5 0,0 -0.01,0.02 -0.01,0.02 1.91,-3.02 -1.42,-5.25 -1.22,-8.01 1.96,-1.31 0.57,-3.46 1.28,-5.08 z"
         id="path84" />
      <path
         class="cls-78"
         d="m 685.81,291.19 c 6.31,4.95 13.91,2.03 20.84,3.29 1.42,0.26 3.06,0.11 4.12,1.05 5.13,4.52 11.65,6.72 17.2,10.51 -0.5,0.85 -1.28,1.25 -2.2,1.43 -1.66,0.35 -2.91,-1.77 -4.68,-0.75 -0.5,0.41 -1.05,0.7 -1.7,0.74 -3.53,-1.08 -6.83,-2.9 -10.6,-3.16 -1.95,-2.85 -4.4,-5.23 -7.27,-7.1 -1.66,-1.09 -3.61,-1.47 -5.49,-0.23 -4.22,-0.78 -8.67,-0.84 -12.08,-4.04 0.62,-0.58 1.25,-1.17 1.87,-1.75 z"
         id="path85" />
      <path
         class="cls-60"
         d="m 759.91,350.97 c -3.2,-0.86 -1.9,-2.89 -1.04,-4.56 1.51,-2.91 3.4,-5.56 6.25,-7.36 2.34,-0.94 4.56,-2.52 8.47,-1.23 -7.19,2.55 -13.48,4.99 -13.69,13.15 z"
         id="path86" />
      <path
         class="cls-81"
         d="m 789.44,343.19 c -2.83,-2.74 -6.93,-3.05 -10.55,-5.19 4.52,-1.06 7.11,0.2 10.55,5.19 z"
         id="path87" />
      <path
         class="cls-82"
         d="m 711.01,379.06 c 0.85,-1.89 3.19,-0.29 4.24,-1.77 -0.78,-1.56 -2.23,-1.22 -3.49,-1.25 -3.4,-0.07 -6.57,-1 -9.23,-3.07 -1.75,-1.36 -5.39,-1.5 -4.29,-5.07 0.93,-3.02 3.47,-5.11 6.32,-5.64 2.49,-0.47 4.77,-0.93 6.8,-2.42 2.39,-1.76 3.95,0.23 5.73,1.25 -2.81,2.91 -6.52,2.67 -10.08,2.79 -2.63,0.09 -5.24,0.37 -5.87,3.37 -0.67,3.22 1.71,5.1 4.27,5.83 5.12,1.46 10.13,3.9 15.83,2.16 2.79,-0.85 5.35,1.26 6.91,3.03 1.51,1.71 -0.62,2.94 -2.46,2.81 -2.29,-0.16 -4.53,-0.82 -6.81,-1.13 -2.61,-0.37 -5.24,-0.6 -7.86,-0.89 z"
         id="path88" />
      <path
         class="cls-84"
         d="m 743.95,379.97 c 2.73,0.32 1.95,2.42 2.07,4.07 -1.72,2.37 -2.48,5.41 -5.32,6.98 -2.62,1.45 -4.19,4.03 -5.92,6.36 -2.24,-1.44 -2.06,-3.39 -1.78,-5.38 5.2,-2.6 7.28,-8.04 10.95,-12.03 z"
         id="path89" />
      <path
         class="cls-87"
         d="m 692,450.97 c -3.21,-3.24 -2.57,-7.09 -1.11,-10.63 0.56,-1.37 0.5,-2.34 0.29,-3.55 4.39,-2.99 9.09,-5.48 13.95,-7.5 5.44,-2.26 9.35,-5.29 9.54,-11.63 1.02,-0.99 2.05,-2.51 3.63,-1.46 1.75,1.17 1.43,3.02 0.73,4.75 0.23,2.44 -0.45,4.74 -1.06,7.06 -1.89,-0.34 -3.55,0.29 -5.24,1.06 -4.63,2.12 -8.81,5.07 -13.56,7.04 -3.47,1.44 -5.88,4.12 -5.24,8.53 0.33,2.29 0.14,4.66 -1.93,6.33 z"
         id="path90" />
      <path
         class="cls-104"
         d="m 719.02,420.96 c -0.1,-2.58 0.3,-5.79 -3.93,-3.04 -0.76,-0.11 -1.25,-0.52 -1.42,-1.28 -0.07,-1.94 3.54,-3.11 1.15,-5.54 -0.31,-1.02 0.15,-1.81 0.75,-2.56 0.69,-0.69 1.51,-1.14 2.49,-1.26 2.73,-0.09 5.46,-0.35 8.42,0.52 -1.26,-2.12 -3.9,-1.55 -5.07,-3.26 -0.6,-1.06 -1.01,-2.15 -0.61,-3.39 0.41,-0.4 0.82,-0.79 1.23,-1.19 0.98,0.39 1.96,0.78 2.94,1.17 3.72,0.86 5.3,5.05 9.07,5.83 3.77,0.84 6.56,2.69 7.11,6.87 -2.26,1.52 -2.33,3.83 -2.22,6.2 -1.7,-1.43 -0.55,-3.74 -1.8,-5.46 -2.27,-3.12 -8.15,-5.75 -11.84,-4.41 -5.08,1.84 -5.78,6.15 -5.33,10.87 -0.31,-0.02 -0.62,-0.04 -0.93,-0.06 z"
         id="path91" />
      <path
         class="cls-5"
         d="m 734.03,406.95 c -4.14,-0.21 -6.68,-2.89 -9.07,-5.83 1.99,-0.97 2.68,-3.82 5.8,-3.84 -1.49,4.18 -0.43,7.43 3.27,9.67 z"
         id="path92" />
      <path
         class="cls-72"
         d="m 612.04,380.57 -0.06,-0.11 q 1.83,-0.6 4.49,1.77 c 1.57,2.15 4.28,2.71 6.18,4.4 1.4,2.21 3.97,3.79 3.73,6.88 -0.95,1.26 -2.07,1.26 -3.29,0.43 -3.29,-4.78 -9.03,-7.54 -11.04,-13.37 z"
         id="path93" />
      <path
         class="cls-17"
         d="m 623.08,393.95 c 1.06,0.01 2.2,0.28 2.89,-0.89 4.83,0.59 7.3,4.18 9.85,7.69 -2.24,2.28 -4.32,4.78 -7.77,5.28 2.81,-7 2.48,-7.81 -4.98,-12.08 z"
         id="path94" />
      <path
         class="cls-100"
         d="m 719.95,336.08 c -0.36,-7.67 3.72,-9.09 12.3,-9.61 3.17,-0.19 6.61,5.41 6.7,10.19 0.11,6.41 -5.76,8.67 -12.9,9.16 -3.21,0.22 -6.13,-4.73 -6.1,-9.75 z"
         id="path95" />
      <path
         class="cls-46"
         d="m 701.99,338.02 c 1.3,-1.39 2.6,-2.79 3.9,-4.18 1.81,-2.38 2.57,-6.24 6.99,-4.91 5.33,4.03 2.13,9.25 1.96,14.06 -0.32,0.26 -0.63,0.53 -0.95,0.79 -1.86,2.03 -3.5,4.28 -6.12,5.5 -4.01,1.86 -7.02,1.21 -9.77,-2.26 v 0 c -1.74,-4.36 2.88,-5.9 3.99,-8.99 z"
         id="path96" />
      <path
         class="cls-4"
         d="m 708.94,303.94 c 4.46,-1.76 7.49,1.68 11.08,3.06 5.28,0.48 8.11,4.8 11.73,7.75 3.08,2.51 5.84,5.22 9.63,6.88 4.3,1.88 6.03,5.92 6.53,10.46 2.05,2.43 4.64,4.78 1.05,7.95 -1.28,-3.48 -3.21,-6.52 -5.99,-9 -1.97,-4.03 -5.37,-6.66 -8.94,-9.12 -5.77,-7.21 -13.88,-11 -21.87,-14.95 -2.04,-1.01 -4.59,-0.94 -6.17,-2.93 0,-0.34 0,-0.68 0,-1.02 1.3,-0.7 2.09,0.21 2.94,0.93 z"
         id="path97" />
      <path
         class="cls-86"
         d="m 698,347.01 c 3.27,2.93 6.66,2.87 10.19,0.45 1.87,-1.28 3.8,-2.46 5.7,-3.69 -0.43,1.29 -0.48,2.38 1.35,2.42 -0.28,2.13 -2.27,2.67 -3.6,3.81 -1.35,1.16 -2.51,2.31 -0.87,4.07 0.97,0.85 2.49,0.8 3.26,1.97 -0.43,0.49 -0.94,1.47 -1.27,1.41 -5.11,-0.93 -10.19,1.53 -15.24,0.15 -2.72,-0.74 -3.59,-6.27 -1.24,-8.39 0.76,-0.68 1.53,-1.15 1.72,-2.2 z"
         id="path98" />
      <path
         class="cls-44"
         d="m 709.97,355.03 c -2.87,-1.75 -2.41,-3.63 -0.09,-5.38 1.69,-1.27 3.56,-2.31 5.35,-3.46 3.09,0.44 6.13,1 8.79,2.76 1.3,2.22 0.57,4.27 -1.65,4.62 -4.1,0.65 -8.13,2.28 -12.41,1.45 z"
         id="path99" />
      <path
         class="cls-36"
         d="m 743.74,341.25 c 0.09,3.28 1.77,5.73 4.11,7.83 -4.67,4.51 -10.8,2.86 -16.31,3.79 -1.24,0.21 -1.6,-1.01 -0.8,-2.03 0.49,-0.63 1.17,-1.29 1.89,-1.53 3.71,-1.24 7.19,-2.63 8.57,-6.86 0.28,-0.86 1.43,-1.33 2.53,-1.2 z"
         id="path100" />
      <path
         class="cls-45"
         d="m 723.91,320.24 c 0.34,0.85 1.08,0.89 1.83,0.91 -0.65,1.64 -1.86,2.8 -3.52,3.15 -2.76,0.59 -4.21,2.42 -5.21,4.83 -1.58,0.62 -2.9,0.06 -4.13,-0.91 -0.24,-3.63 3.12,-4.83 4.82,-7.15 1.89,-1.58 3.82,-2.93 6.21,-0.83 z"
         id="path101" />
      <path
         class="cls-86"
         d="m 712.97,328.03 c 1.46,-0.06 2.8,0.36 4.05,1.1 0.51,2.4 4.47,4.85 -0.73,7.15 -1.55,0.69 0.92,4.76 -1.44,6.7 -0.07,-4.81 1.67,-10 -2.87,-13.9 -0.31,-0.96 0.09,-1.24 1,-1.06 z"
         id="path102" />
      <path
         class="cls-40"
         d="m 709.97,355.03 c 3.66,-0.66 7.31,-1.42 10.99,-1.95 2.57,-0.37 3.13,-1.95 3.07,-4.13 2.77,0.49 4.3,1.94 3.83,4.94 -4.51,1.38 -9.41,0.25 -13.83,2.15 -1.4,-0.16 -3,0.53 -4.05,-1.02 z"
         id="path103" />
      <path
         class="cls-96"
         d="m 751.97,345.01 c 0.33,-6.58 2.38,-8.23 9.72,-7.83 1.11,3.07 -2.17,4.02 -3.01,6.17 -0.76,1.94 -1.82,3.76 -2.75,5.63 -2.93,0.29 -2.44,-2.85 -3.96,-3.97 z"
         id="path104" />
      <path
         class="cls-56"
         d="m 761.13,393.25 c -0.38,-7.45 0.93,-14.43 1.71,-21.74 3.38,2.46 2.63,10.18 -1.71,21.74 z"
         id="path105" />
      <path
         class="cls-59"
         d="m 723.97,450.96 c -4.34,2.7 -8.69,5.41 -13.03,8.11 -4.34,1.69 -7.91,4.85 -12.26,6.53 -1.8,0.69 -3.61,1.98 -5.61,0.45 -0.82,-0.04 -1.65,-0.07 -2.47,-0.11 -1.21,-0.05 -2.36,-0.2 -2.48,-1.77 -0.12,-1.48 0.83,-1.81 2.05,-2.24 3.37,-1.19 6.94,-1.77 10.35,-2.63 8.23,-2.08 15.85,-5.08 22.79,-9.91 0.69,-0.48 1.54,-1.42 2.62,-0.53 0.44,1.72 -0.37,2.28 -1.96,2.1 z"
         id="path106" />
      <path
         class="cls-91"
         d="m 693.07,466.06 c 4.14,-0.67 7.98,-2.23 11.09,-4.98 2.09,-1.84 4.21,-2.38 6.77,-2.01 0.11,1.23 -0.28,2.99 2.01,1.86 0.28,0.23 0.38,0.47 0.3,0.72 -0.08,0.25 -0.17,0.37 -0.26,0.37 -0.36,1.24 -0.73,2.47 -1.09,3.71 -3.97,2.65 -8.66,1.11 -12.89,2.24 -1.65,-0.02 -3.29,-0.06 -4.94,-0.04 -1.61,0.02 -1.47,-0.83 -0.99,-1.89 z"
         id="path107" />
      <path
         class="cls-88"
         d="m 723.97,450.96 c 0.65,-0.7 1.31,-1.4 1.96,-2.1 1.67,-1.05 3.33,-2.09 5,-3.14 -0.87,3.15 -3.85,5.39 -6.96,5.23 z"
         id="path108" />
      <path
         class="cls-10"
         d="m 635.83,400.75 c -3.28,-2.56 -6.57,-5.13 -9.85,-7.69 -1.34,-1.96 -2.68,-3.92 -4.03,-5.88 -1.28,-2.48 -4.08,-2.7 -6.07,-4.12 -1.3,-0.87 -2.6,-1.73 -3.9,-2.59 -0.72,-1.29 -1.19,-2.84 -2.21,-3.81 -1.8,-1.69 -4.32,-2.9 -3.52,-5.96 1.57,-5.97 0.99,-12.65 5.66,-17.59 0.33,-0.35 1.26,-0.14 1.91,-0.18 0.45,-0.31 0.94,-0.54 1.46,-0.71 5.04,-0.43 8.95,3.25 13.73,3.78 2.32,0.68 4.63,1.36 6.95,2.05 6.13,2.29 11.97,5.35 18.46,6.69 1.96,0.41 3.75,1.67 4.06,3.91 0.33,2.36 -1.62,3.41 -3.15,4.66 -3.32,2.71 -7.55,1.64 -11.26,2.73 -4.03,1.4 -7.92,3.34 -12.38,3.13 -1.24,-0.06 -2.49,0.67 -2.08,2.06 0.32,1.1 1.53,0.73 2.53,0.4 5.85,-1.91 12.02,-1.48 18.03,-2.3 2.07,-0.28 4.01,0.67 5.04,2.53 1.13,2.04 -0.17,3.82 -1.33,5.37 -0.77,1.02 -1.95,1.73 -2.95,2.58 -6.82,1.17 -9.53,8.02 -15.1,10.92 z"
         id="path109" />
      <path
         class="cls-57"
         d="m 613.96,334.99 c 2.94,-4.66 6.06,-9.17 10.86,-12.17 1.39,-0.45 2.79,-0.84 4.19,-1.24 0.44,-0.04 0.86,0.02 1.26,0.18 0.57,0.37 0.96,0.88 1.17,1.52 2.17,3.28 4.86,0 7.25,0.57 2.25,-0.03 3.93,0.8 4.62,3.08 1.51,3.36 2.99,6.9 2.53,10.55 -0.48,3.83 0.9,6.05 4.13,7.54 3.58,3.22 7.52,4.12 11.97,1.91 -0.12,2.27 3.41,1.91 3.11,4.48 -0.24,2.08 0.19,5.55 -1.82,5.48 -3.11,-0.11 -6.25,4.9 -9.27,0.17 0.96,-4.76 -2.75,-6.19 -5.78,-8.09 -5.25,-2.81 -10.8,-1.12 -16.04,4.9 -2.04,0.02 -4.07,0.05 -6.11,0.07 -0.28,-0.41 -0.3,-0.82 -0.02,-1.22 1.6,-1.35 0.85,-2.09 -0.64,-2.83 -2.32,-1.16 -5.07,-1.56 -6.52,-4.24 -0.97,-1.8 -1.86,-0.3 -2.65,0.45 -1.25,1.18 -1.8,3.34 -4.16,2.98 0.7,-3.99 3.18,-7.02 5.53,-10.11 1.08,-1.43 2.72,-2.91 -0.4,-3.91 -1.03,-1.93 -2.19,1.66 -3.23,-0.07 z"
         id="path110" />
      <path
         class="cls-47"
         d="m 612.06,349.08 c 1.55,-0.62 1.8,-2.32 2.82,-3.38 1.86,-1.92 3.58,-6.91 5.66,0.15 0.46,1.55 4.14,2.13 6.31,3.21 1.31,0.65 3.14,1.28 2.67,3.04 -0.44,1.66 -2.31,0.58 -3.5,0.9 -1.98,1.62 -3.98,0.05 -5.96,0.11 -1.7,0.05 -3.39,-1.23 -5.09,-0.08 -0.38,-0.03 -0.76,-0.07 -1.14,-0.1 0.42,-1.75 -1.42,-2.46 -1.77,-3.85 z"
         id="path111" />
      <path
         class="cls-7"
         d="m 652.25,392.17 c 5.33,-0.39 7.36,-5.17 10.76,-8.12 1.96,-0.87 3.95,-1.11 5.19,0.98 1.09,1.84 -0.11,3.48 -1.17,4.98 -0.57,0.81 -1.29,1.51 -2.04,2.14 -2.87,1.53 -3.39,4.77 -5.13,7.12 -1.02,1.48 -2.03,2.98 -3.25,4.31 -0.59,0.71 -1.22,1.41 -1.84,2.27 1.19,-0.56 1.81,-1.76 3.03,-2.09 0.51,-0.08 0.97,0.03 1.39,0.33 1.5,2.17 1.18,4.46 0.49,6.79 -0.62,1.26 -1.56,2.2 -2.82,2.81 -1.22,0.52 -2.53,0.56 -3.82,0.74 -5.68,0.8 -6.72,0.21 -9.22,-5.23 l -1.71,-1.3 c -1.86,-0.8 -3.48,-1.84 -4.04,-3.96 3.88,-4.94 9.24,-8.11 14.18,-11.78 z"
         id="path112" />
      <path
         class="cls-100"
         d="m 641.01,415.99 c -0.35,10.76 -2.69,12.93 -13.99,13 -5.75,-5.82 -6.76,-10.99 -3.06,-15.63 3.34,-4.19 10.44,-4.57 14.14,-0.73 1.03,1.07 1.94,2.24 2.91,3.36 z"
         id="path113" />
      <path
         class="cls-87"
         d="m 643.83,409.21 c 3.06,5.88 8.33,3.94 13.11,3.7 1.42,0.11 3,-0.06 3.28,1.95 -1.22,1.75 -3.46,0.83 -5.36,2.16 2.61,3.98 6.52,6.75 9.57,10.27 1.45,1.67 3.91,2.74 3.56,5.58 -0.02,0.73 -0.04,1.46 -0.07,2.19 -2.64,0.38 -3.81,-1.77 -5.19,-3.26 -5.09,-5.46 -11.41,-9.51 -16.69,-14.74 -0.35,-0.36 -0.69,-0.71 -1.04,-1.07 -1.98,-1.98 -3.42,-4.06 -1.18,-6.78 z"
         id="path114" />
      <path
         class="cls-79"
         d="m 638.07,403.94 c 1.35,1.32 2.7,2.64 4.04,3.96 -3.68,0.38 -7.37,0.77 -11.69,1.22 1.92,-3.51 5.23,-3.69 7.64,-5.18 z"
         id="path115" />
      <path
         class="cls-96"
         d="m 667.97,450.99 c 0.37,0.65 0.75,1.31 1.12,1.96 -3.49,2.5 -6.67,0.05 -9.78,-0.87 -10.94,-3.24 -20.5,-9.04 -29.04,-16.55 -0.43,-0.38 -0.62,-1.05 -1.17,-2.02 6.06,-0.52 10.76,-3.58 15.89,-5.52 8.56,2.43 16.69,5.6 22.35,13.01 0.1,3.34 0.16,6.67 0.63,9.99 z"
         id="path116" />
      <path
         class="cls-29"
         d="m 646.05,417.05 c 1.41,-0.95 2.3,-0.21 3.36,0.79 6.14,5.78 12.34,11.48 18.53,17.21 0.6,0.92 0.83,1.85 -0.02,2.76 -5.24,-0.51 -9,-4.25 -13.51,-6.35 -2.56,-1.19 -5.61,-1.9 -7.42,-4.46 -4.84,-2.89 -2.37,-6.47 -0.93,-9.95 z"
         id="path117" />
      <path
         class="cls-68"
         d="m 646.99,427 c 7.31,2.96 14.23,6.68 20.93,10.81 -0.28,0.68 -0.56,1.37 -0.84,2.06 0.3,0.45 0.27,0.86 -0.15,1.23 -6.24,-6.16 -14.56,-8.85 -21.93,-13.1 0.8,-0.07 1.6,-0.13 2,-0.99 z"
         id="path118" />
      <path
         class="cls-23"
         d="m 648.1,465.73 c -4.14,-3.42 -10.14,-2.95 -14.11,-6.73 -4.62,-2.61 -8.84,-5.8 -13.09,-8.95 -1.71,-0.89 -1.9,-2.44 -1.8,-4.11 0.48,-2.22 -1.75,-2.68 -2.64,-4.01 -0.95,-1.42 -2.88,-2.15 -2.97,-4.19 0.13,-0.46 0.4,-0.8 0.82,-1.02 3.25,0.23 4.21,3.94 7.13,4.68 1.53,0.74 3.32,-0.49 4.8,0.6 0.63,0.32 1.26,0.65 1.89,0.97 1.07,0.66 0.89,1.74 0.94,2.75 3.15,3.4 6.32,6.77 10.9,8.28 3.02,1.69 6.04,3.37 9.06,5.06 0.22,1.57 -0.57,2.2 -2.04,2.19 -6.48,-1.72 -11.57,-6.03 -17.18,-9.37 5.6,3.75 11.17,7.54 17.55,9.89 1.33,1.12 1.87,2.39 0.73,3.96 z"
         id="path119" />
      <path
         class="cls-72"
         d="m 639.97,454 c -3.97,-0.09 -10.06,-4.72 -10.9,-8.28 2.59,0.54 3.98,2.8 6,4.16 1.63,1.37 3.27,2.75 4.9,4.12 z"
         id="path120" />
      <path
         class="cls-100"
         d="m 688.98,450.95 c -3.97,5.14 -9.66,3.79 -14.95,3.99 -1.19,-3.9 -3.92,-7.24 -3.14,-11.88 0.83,-4.92 4.2,-7.69 11.09,-7.87 2.79,-0.07 6.86,4.39 6.98,7.8 0.1,2.65 0.02,5.3 0.01,7.96 z"
         id="path121" />
      <path
         class="cls-15"
         d="m 714.05,416.94 c 0.34,0.33 0.69,0.65 1.04,0.98 1.01,5.77 -1.25,9.23 -6.9,11.16 -5.88,2.02 -10.59,6.78 -17.02,7.71 -0.08,-0.77 0.04,-1.46 0.76,-1.9 3.63,-5.11 7.82,-9.69 13.18,-13.03 1.75,-1.09 2.79,-2.74 4.19,-4.1 1.31,-1.27 2.69,-3.37 4.75,-0.83 z"
         id="path122" />
      <path
         class="cls-43"
         d="m 692,432.84 c -2.23,1.41 -4.35,1.91 -6.05,-0.77 -1.38,-1.46 -1.84,-2.95 -0.21,-4.55 6.67,-2.39 9.92,-8.43 14.24,-13.34 1.28,-0.43 2.6,-0.45 3.92,-0.29 1.67,0.21 3.46,0.56 4.08,2.31 0.57,1.61 -0.76,2.82 -1.8,3.8 -4.64,4.38 -8.67,9.43 -14.18,12.84 z"
         id="path123" />
      <path
         class="cls-43"
         d="m 668,432.86 c -5.56,-4.94 -11.12,-9.88 -16.7,-14.83 3.42,-3.69 6.16,-3 8.71,-3.12 1.77,0.56 2.49,2.17 3.33,3.55 2.63,4.31 6.69,6.82 10.97,9.11 1.6,1.6 1.06,3.09 -0.24,4.53 -1.75,2.44 -3.8,2.51 -6.07,0.77 z"
         id="path124" />
      <path
         class="cls-87"
         d="m 692,432.84 c 4.53,-5.91 11.02,-9.98 15.36,-16.24 -2.06,-2.27 -4.83,-1.54 -7.36,-1.73 -0.37,-1.91 2.7,-1.38 2.33,-3.3 4.22,-0.1 8.51,1.23 12.66,-0.58 1.91,0 3.61,0.29 2.04,2.74 -0.78,1.21 -1.97,2.15 -2.97,3.21 -1.67,-0.88 -2.65,0.13 -3.8,1.19 -6.07,5.63 -12.21,11.18 -18.32,16.75 0.02,-0.68 0.04,-1.37 0.06,-2.05 z"
         id="path125" />
      <path
         class="cls-78"
         d="m 666.92,441.1 c 0.05,-0.41 0.1,-0.82 0.15,-1.23 3.78,1.56 4.21,6.99 0.9,11.13 -2.12,-3.11 -2.76,-6.38 -1.05,-9.9 z"
         id="path126" />
      <path
         class="cls-49"
         d="m 674.07,432.09 c -0.19,-1.33 0.99,-2.71 -0.12,-4.01 4.04,-0.98 8.07,-1 12.1,0.01 -1.12,1.29 0.05,2.65 -0.11,3.97 -3.96,-1.14 -7.92,-1.21 -11.87,0.03 z"
         id="path127" />
      <path
         class="cls-32"
         d="m 647.06,460.93 c 0.66,-0.62 1.31,-1.25 1.97,-1.87 2.57,-0.38 4.71,0.15 6.8,1.99 3.12,2.76 6.97,4.29 11.11,5 0.47,1.05 0.63,1.92 -1,1.9 -1.65,-0.02 -3.3,0.02 -4.95,0.04 -4.22,-1.18 -8.93,0.44 -12.89,-2.25 -0.36,-1.23 -0.73,-2.46 -1.09,-3.69 -0.26,-0.26 -0.35,-0.51 -0.24,-0.76 0.1,-0.24 0.2,-0.36 0.29,-0.36 z"
         id="path128" />
      <path
         class="cls-98"
         d="m 621.2,441.85 c -3.71,0.31 -4.31,-3.94 -7.16,-4.88 -4.41,-6.74 -10.04,-12.79 -11.99,-20.94 -1.8,-1.34 -1.94,-3.63 -3.17,-5.31 -0.14,2.37 1.43,3.78 3.04,5.17 0.3,3.91 2.22,7.26 4.3,10.33 2.47,3.66 5.02,7.31 7.8,10.77 0.85,3.9 4.63,5.38 6.75,8.23 0.32,0.43 1.17,1.02 0.1,1.38 -0.47,0.16 -1.18,-0.42 -1.78,-0.66 -10.24,-9.46 -18.38,-20.46 -23.9,-33.28 -1.15,-2.67 -1.63,-5.63 -2.43,-8.46 0.41,-0.07 0.83,-0.14 1.24,-0.21 1.48,-0.26 3.36,0.34 3.92,-1.86 0.4,-0.4 0.8,-0.8 1.2,-1.2 2.51,1.75 0.96,5.58 3.7,7.22 3.88,11.05 9.81,20.94 17.09,30.06 0.82,1.02 1.57,2.18 1.28,3.65 z"
         id="path129" />
      <path
         class="cls-36"
         d="m 621.2,441.85 c -6.24,-7.99 -12.29,-16.1 -16.11,-25.62 -1.05,-2.62 -2.15,-5.22 -2.26,-8.09 2.32,-0.12 1.86,1.88 2.37,3.13 1.85,4.46 3.09,9.24 6.75,12.75 3.06,7.34 9.25,12.2 14.28,17.98 -1.67,-0.11 -3.43,2.49 -5.03,-0.14 z"
         id="path130" />
      <path
         class="cls-107"
         d="m 597.93,402.12 c 0.44,0.98 1.55,1.81 0.73,3.09 -1.33,-1.24 -3.66,1.29 -4.65,-1.23 0.91,-1.46 1.19,-4.24 3.92,-1.86 z"
         id="path131" />
      <path
         class="cls-34"
         d="m 593.44,374.89 c 0.82,5.78 1.67,11.55 2.44,17.34 0.14,1.03 -0.25,2.17 -1.46,2.15 -0.83,0 -1.37,-0.98 -1.32,-1.85 0.37,-5.91 -1.89,-11.73 0.34,-17.64 z"
         id="path132" />
      <path
         class="cls-90"
         d="m 726.04,459.05 c 3.84,-3.75 8.1,-6.89 13.07,-9 -2.99,4.98 -7.96,7.1 -13.07,9 z"
         id="path133" />
      <path
         class="cls-22"
         d="m 620.9,450.05 c 5.15,1.83 9.12,5.4 13.09,8.95 -5.27,-1.65 -9.94,-4.19 -13.09,-8.95 z"
         id="path134" />
      <path
         class="cls-3"
         d="m 712.99,462.03 c -0.01,-0.36 -0.03,-0.73 -0.04,-1.09 6.89,-3.03 13.14,-7.21 19.63,-10.96 -5.63,5.49 -12.07,9.65 -19.6,12.06 z"
         id="path135" />
      <path
         class="cls-96"
         d="m 714.98,410.99 c -3.99,4.83 -8.58,1.73 -12.99,0.97 -3.43,-2.46 -2.57,-5.56 -1.32,-8.72 0.9,-1.24 2.62,0.35 3.61,-1.12 -3.96,-4.19 -8.8,-7.47 -12.32,-12.08 -1.92,-3.02 0.72,-4.28 2.46,-5.4 1.83,-1.18 4.51,-0.59 5.39,1.1 2.98,5.77 9.15,7.23 13.66,10.89 0.51,0.41 1.03,0.81 1.55,1.22 3.94,3.87 4.04,5.03 0.95,11.16 -0.34,0.66 -0.67,1.32 -1.01,1.98 z"
         id="path136" />
      <path
         class="cls-79"
         d="m 701.89,403.17 c -1.38,2.95 -1.47,5.88 0.11,8.78 1.44,2.42 -1.63,1.74 -2,2.91 -3.06,6.08 -6.99,11.25 -13.94,13.22 -4.04,1.18 -8.07,1.19 -12.1,-0.01 -6.93,-1.98 -10.93,-7.05 -13.94,-13.17 -1.02,-0.67 -2.05,-1.33 -3.07,-2 0.67,-0.65 1.34,-1.3 2.01,-1.95 0.83,-0.58 0.35,-1.85 1.27,-2.37 0.72,-0.25 1.38,-0.16 1.98,0.33 1.26,8.6 5.4,14.56 12.25,15.97 -2.49,-0.28 -4.54,-1.42 -3.39,-5.01 10.06,4.7 13.76,4.23 20.24,-2.6 4.24,-4.46 4.97,-11.91 1.7,-17.28 -0.18,-0.27 -0.37,-0.55 -0.51,-0.84 -0.73,-1.59 -2.33,-3.52 -0.45,-4.85 1.86,-1.32 3.7,0.66 4.32,2.07 1.25,2.87 5.83,2.86 5.55,6.8 z"
         id="path137" />
      <path
         class="cls-36"
         d="m 684.11,328.19 c 2.39,-2.39 6.2,-3.05 7.82,-6.39 6.51,-0.52 11.57,2.58 16.3,6.51 -0.04,2.85 -2.43,3.54 -4.33,4.66 -2.98,1.64 -4.96,4.49 -8.01,6.23 -3.04,1.73 -5.32,1.76 -7.98,-0.05 -3.23,-2.97 -5.6,-6.24 -3.81,-10.96 z"
         id="path138" />
      <path
         class="cls-34"
         d="m 650,327.04 c -0.29,-0.03 -0.57,-0.09 -0.85,-0.17 -3.56,-1.01 -5.47,-4 -7.74,-6.52 -1.02,-1.14 -1.52,-2.57 -0.16,-3.93 6.88,-3.16 13.59,-6.78 21.02,-8.54 5.01,-1.19 6.09,-0.18 5.45,4.81 -0.25,1.96 -0.27,3.96 -0.89,5.87 -0.29,0.75 -0.76,1.37 -1.36,1.9 -4.91,2.79 -9.92,5.34 -15.49,6.59 z"
         id="path139" />
      <path
         class="cls-7"
         d="m 659.22,335.82 c -1.94,-2.79 -5.62,-3.69 -7.33,-6.73 -0.31,-1.5 0.86,-2.06 1.83,-2.51 4.52,-2.11 8.68,-5.18 13.92,-5.44 1.49,3.31 5.75,3.21 7.58,6.14 2.05,3.98 0.57,7.53 -2.03,10.33 -2.56,2.75 -5.96,1.83 -9.17,0.54 -1.66,-0.67 -3.27,-1.39 -4.78,-2.33 z"
         id="path140" />
      <path
         class="cls-8"
         d="m 669.76,345.52 c 5.23,-7.21 12,-8.11 19.04,-2.62 0.76,0.6 2,0.99 1.66,2.15 -0.45,1.53 -1.91,0.83 -2.98,0.93 -1.19,0.12 -3.14,-1.9 -3.32,0.99 -0.14,2.26 1.77,1.95 3.22,1.99 1.65,0.05 3.45,-0.18 4.3,1.72 0.56,1.24 -0.13,2.2 -0.99,3.09 -1.68,1.75 -3.05,0.8 -4.82,-0.09 -4.06,-2.04 -8.37,-1.76 -12.26,0.38 -2.02,1.11 -3.41,0.62 -5.03,-0.31 -1.06,-0.61 -1.12,-1.45 -0.66,-2.52 0.78,-1.82 2.21,-2.32 4.02,-2.25 0.66,0.03 1.33,0 1.99,-0.03 1.45,-0.06 2.15,-0.86 1.91,-2.27 -0.28,-1.67 -1.5,-0.65 -2.34,-0.7 -1.25,-0.07 -2.59,0.51 -3.75,-0.47 z"
         id="path141" />
      <path
         class="cls-73"
         d="m 673.97,327.05 c -0.54,-0.38 -1.14,-1.13 -1.63,-1.07 -3.3,0.47 -3.31,-2.3 -4.27,-4.13 -0.8,-1.03 -3.3,0.8 -3.12,-1.86 0.36,-0.31 0.73,-0.63 1.09,-0.94 2.57,-2.1 3.54,-6.98 2.07,-9.94 -0.89,-1.8 -2.1,-1.43 -3.72,-1.12 -7.04,1.33 -13.35,4.59 -19.88,7.26 -0.92,0.37 -1.81,0.83 -2.75,1.14 -1.85,0.62 -2.55,2.71 -4.32,3.44 -2.31,0.74 -3.16,4.28 -6.35,3.33 -0.36,-0.38 -0.73,-0.76 -1.09,-1.14 -0.19,-2.52 1.98,-3.31 3.49,-4.39 9.29,-6.65 19.29,-11.88 30.71,-13.58 4.83,-0.72 8.88,-3.8 13.8,-3.96 0.31,-0.03 0.62,-0.08 0.92,-0.15 0.11,2.47 0.54,4.59 -3.11,5.55 -2.69,0.71 -4.82,3.19 -4.89,6.78 -0.07,4.44 -0.41,9.31 4.42,11.11 3.57,1.33 2.78,3.33 2.62,5.67 -2.03,0.72 -2.55,-1.57 -4.01,-1.99 z"
         id="path142" />
      <path
         class="cls-67"
         d="m 661.95,346.94 c -4.73,4.24 -5.36,4.19 -12.01,-0.79 -3.16,-3.16 -3.48,-6.24 -0.9,-8.8 2.22,-2.2 4.87,-1.79 8.04,1.29 1.41,1.37 2.85,2.71 3.94,4.37 1.8,0.96 2.2,2.25 0.92,3.93 z"
         id="path143" />
      <path
         class="cls-13"
         d="m 674,386 c 2.83,-0.4 1.63,-2.22 1.33,-3.74 -0.14,-0.73 0.22,-1.32 0.91,-1.56 0.8,-0.28 1.27,0.31 1.47,0.93 1.07,3.21 2.23,6.4 3.06,9.68 0.4,1.57 -1.28,1.78 -2.33,1.96 -6.27,1.12 -10.01,5.13 -12.5,10.65 -1.56,-1.05 -2.64,-2.46 -3.25,-4.24 0.6,-4.56 4.22,-6.79 7.38,-9.28 1.43,-1.13 2.98,-1.99 3.46,-3.9 0.15,-0.17 0.31,-0.33 0.47,-0.5 z"
         id="path144" />
      <path
         class="cls-105"
         d="m 661.03,343.01 c -1.13,-0.95 -2.33,-1.82 -3.36,-2.87 -2.14,-2.19 -4.57,-4.81 -7.53,-2.31 -2.58,2.17 -2.57,5.48 -0.2,8.32 -3.88,-1.55 -6.72,-3.2 -5.32,-8.61 0.76,-2.94 -0.12,-6.77 -2.57,-9.53 1.11,-1.42 2.69,-1.34 4.25,-1.35 1.34,0.3 1.51,1.91 2.68,2.41 3.75,4.87 9.25,8.23 12.05,13.93 z"
         id="path145" />
      <path
         class="cls-69"
         d="m 663.05,400.04 c 1.56,0.85 2.86,1.89 2.89,3.87 0,0 0,0.03 0,0.03 -1.59,2.69 -0.34,5.39 0,8.08 0.88,3.16 3.07,5.45 5.11,7.86 0.86,1.7 0.62,4.39 4.03,3.59 0.98,-0.23 1.77,1.69 2.25,2.95 -8.61,0.84 -17.6,-10.3 -15.34,-17.43 -3.17,-3.01 -1.77,-5.81 0.4,-8.58 0.22,-0.12 0.44,-0.24 0.66,-0.36 z"
         id="path146" />
      <path
         class="cls-82"
         d="m 644.06,376.04 c 2.76,-1.77 6.31,-0.47 9.01,-2.28 1.9,-1.27 4.41,-2.57 4.36,-5.02 -0.06,-3.07 -3.27,-3.04 -5.36,-3.44 -5.98,-1.17 -10.99,-4.3 -16.12,-7.24 1.87,-0.2 3.56,0.08 5.11,1.35 1.16,0.95 2.53,1.64 3.99,0.27 0.33,-0.31 1.17,-0.62 1.32,-0.47 3.83,3.91 10.27,2.21 13.85,6.3 1.45,1.65 1.33,3.85 -0.59,5.71 -4.41,4.27 -9.75,5.27 -15.58,4.83 z"
         id="path147" />
      <path
         class="cls-12"
         d="m 632.15,353.87 c -0.6,-2.41 0.7,-3.8 2.67,-4.73 1.35,-0.64 2.92,-0.9 4.12,-1.71 3.57,-2.43 6.83,-2.03 10,0.65 1.04,3.67 -0.79,6.05 -4.1,6.3 -3.9,0.28 -7.93,0.69 -11.84,-0.36 -0.29,-0.02 -0.57,-0.07 -0.85,-0.15 z"
         id="path148" />
      <path
         class="cls-74"
         d="m 701.89,403.17 c -3.78,-2.08 -5.81,-6.16 -9.87,-9.21 0.42,2.63 0.69,4.33 0.96,6.04 q -4.96,-4 -1,-9.96 c 5.37,2.45 8.12,8.14 13.37,10.79 1.1,0.56 1.62,1.7 0.52,2.87 -1.55,1.65 -2.86,1.23 -3.98,-0.52 z"
         id="path149" />
      <path
         class="cls-71"
         d="m 633,354.02 c 2.47,0 4.98,-0.27 7.41,0.03 4.77,0.59 7.46,-1.46 8.53,-5.97 1.52,0.99 3.09,1.9 4.54,2.98 2.39,1.77 3.2,3.77 0.49,6.01 -7.22,0.56 -13.89,-2.67 -20.97,-3.04 z"
         id="path150" />
      <path
         class="cls-16"
         d="m 673.97,327.05 c 1.81,-0.28 2.67,1.34 4.01,1.99 -0.1,4.06 -0.54,7.96 -4.62,10.25 -6.05,3.4 -7.37,3.09 -14.14,-3.47 1.73,0.49 3.49,0.91 5.2,1.49 2.9,0.98 6.05,1.8 8.28,-0.71 2.37,-2.66 3.24,-6.05 1.27,-9.55 z"
         id="path151" />
      <path
         class="cls-37"
         d="m 664.95,320 c 1.04,0.62 2.08,1.24 3.12,1.86 -5.82,1.47 -11.12,4.09 -16.19,7.24 -0.63,-0.69 -1.26,-1.37 -1.89,-2.06 4.41,-3.57 9.96,-4.73 14.96,-7.04 z"
         id="path152" />
      <path
         class="cls-13"
         d="m 663.8,391.86 c 0.67,-0.72 1.37,-1.42 2.01,-2.18 1.05,-1.25 2.47,-2.54 1.64,-4.32 -0.88,-1.89 -2.85,-1.19 -4.44,-1.31 7.91,-2.83 9.75,-2.76 10.98,1.95 0,0 0.01,-0.01 0.01,-0.01 -1.79,1.67 -3.79,3.09 -5.6,4.74 -1.25,1.13 -2.59,2.78 -4.61,1.13 z"
         id="path153" />
      <path
         class="cls-54"
         d="m 703.9,332.97 c 1.37,-1.31 2.74,-2.63 4.11,-3.94 0.43,-1.04 0.91,-2.05 1.74,-2.84 2.45,-1.94 3.84,-5.29 7.5,-5.63 0.7,0.3 1.21,0.7 0.82,1.57 -1.7,1.96 -3.4,3.93 -5.1,5.89 -0.33,0.35 -0.66,0.71 -1,1.06 -2.76,0.64 -3.18,4.29 -6.09,4.75 -0.66,-0.29 -1.32,-0.58 -1.98,-0.87 z"
         id="path154" />
      <path
         class="cls-57"
         d="m 648.98,329.08 c -1.62,0.17 -1.89,-1.49 -2.9,-2.14 -3.16,-1.11 -4.88,-3.98 -7.32,-5.97 -0.66,-0.59 -1.38,-1.12 -1.76,-1.97 1.37,-0.97 2.73,-1.93 4.1,-2.9 0.31,0.23 0.42,0.46 0.31,0.69 -0.11,0.23 -0.21,0.34 -0.32,0.34 1.04,4.61 5.94,6.03 8.07,9.74 -1.2,0.65 -0.3,1.46 -0.17,2.21 z"
         id="path155" />
      <path
         class="cls-24"
         d="m 716,409 c -0.2,-3.73 2.46,-7.71 -0.95,-11.16 1.92,1.1 3.83,2.2 5.74,3.3 0.42,0.97 0.85,1.94 1.28,2.91 -0.84,1.86 -2.11,3.26 -4.11,3.9 -0.65,0.35 -1.31,0.7 -1.96,1.06 z"
         id="path156" />
      <path
         class="cls-104"
         d="m 614.97,353.03 c 3.68,-2.62 7.37,-0.2 11.05,-0.02 0,0.31 0.01,0.63 0.02,0.94 -0.13,2.31 2.84,0.13 2.98,2.05 -4.95,0.27 -9.31,-2.22 -14.05,-2.97 z"
         id="path157" />
      <path
         class="cls-65"
         d="m 684.11,328.19 c 0.26,4.01 1.47,7.68 3.81,10.96 -4.9,-1.9 -6.74,-6.06 -4.93,-11.15 0.37,0.06 0.75,0.13 1.12,0.19 z"
         id="path158" />
      <path
         class="cls-86"
         d="m 701.99,338.02 c -0.69,3.28 -4.09,5.36 -3.99,9 -1.25,-0.63 -2.47,-1.65 -1.27,-2.91 1.84,-1.96 2.56,-4.89 5.26,-6.08 z"
         id="path159" />
      <path
         class="cls-13"
         d="m 665.93,412.03 c 0.17,-2.69 -5.01,-5.38 0,-8.08 0,2.69 0,5.39 0,8.08 z"
         id="path160" />
      <path
         class="cls-38"
         d="m 612.12,332.1 c -1.85,0.3 -2.99,-0.79 -4.01,-2.08 -0.32,-2.03 1.57,-2.36 2.64,-3.14 3.02,-2.21 5,-4.99 6.49,-8.47 2.56,-5.98 8.49,-8.37 13.63,-11.51 0.37,0.37 0.74,0.75 1.11,1.12 -1.7,3 -4.54,4.8 -7.3,6.69 4.3,-2.27 6.96,-7.01 12.23,-7.73 3,-0.13 4.35,-4.68 8.02,-3 -7.07,4.36 -13.99,8.93 -19.57,15.21 -0.44,0.49 -0.96,1.07 -1.55,1.23 -6.1,1.72 -9.14,6.46 -11.7,11.69 z"
         id="path161" />
      <path
         class="cls-12"
         d="m 678.01,300.09 c -7.68,5.29 -17.21,4.98 -25.51,8.51 -8.16,3.46 -15.85,7.5 -22.49,13.42 -0.31,0.07 -0.61,0.13 -0.92,0.2 q -1.39,-0.66 -0.09,-3.21 c 5.17,-5.62 11.97,-8.73 18.65,-11.98 8.11,-3.95 16.97,-5.39 25.74,-6.86 2.47,-0.41 2.38,-3.2 4.57,-3.21 0.02,1.04 0.04,2.09 0.05,3.13 z"
         id="path162" />
      <path
         class="cls-57"
         d="m 650.96,303.1 c 3.2,-3.9 5.88,-8.53 12.05,-8.07 1.64,0.12 1.34,0.93 0.97,1.92 -5.1,0.43 -7.92,5.7 -13.01,6.15 z"
         id="path163" />
      <path
         class="cls-14"
         d="m 629,319 c 1.67,1.02 -1.91,2.19 0.09,3.21 -1.13,2.25 -2.79,0.8 -4.27,0.62 0.97,-1.74 2.26,-3.12 4.17,-3.82 z"
         id="path164" />
      <path
         class="cls-36"
         d="m 716.95,321 c -2.32,2 -4.65,3.99 -6.97,5.99 -5.43,-1.42 -10.59,-3.44 -15.14,-6.81 -0.33,-0.36 -0.65,-0.71 -0.98,-1.07 -1.11,-1.93 -1.2,-4.08 -1.42,-6.21 -0.51,-5.05 -0.5,-5.16 4.29,-4.33 6.68,1.16 12.65,4.3 18.69,7.16 1.34,0.63 3.04,1.52 3.08,3.55 -0.13,0.93 -0.76,1.41 -1.56,1.72 z"
         id="path165" />
      <path
         class="cls-62"
         d="m 717.92,319.98 c -1.77,-4.71 -6.73,-4.7 -10.26,-6.71 -4.33,-2.47 -9.11,-4.04 -14.61,-4.66 0.91,3.7 1.15,7.09 0.82,10.49 -6.89,0.08 -3.6,-5.11 -3.68,-7.94 -0.1,-3.55 2.24,-4.19 5.87,-3.49 8.59,1.65 16.39,5.01 23.86,9.37 0.34,1.66 0.47,3.18 -1.99,2.92 z"
         id="path166" />
      <path
         class="cls-41"
         d="m 694.84,320.18 c 5.19,1.95 10.68,3.24 15.14,6.81 -0.66,0.68 -1.31,1.36 -1.97,2.04 -4.96,-3.3 -10.25,-5.86 -16.08,-7.23 0.97,-0.54 1.94,-1.08 2.91,-1.62 z"
         id="path167" />
      <path
         class="cls-57"
         d="m 717.92,319.98 c 1.2,-0.61 1.47,-1.85 1.99,-2.92 1.5,0.85 3.51,1.05 4,3.18 -2.45,-0.9 -4.16,0.45 -5.84,1.9 -0.37,-0.38 -0.75,-0.76 -1.12,-1.14 0.32,-0.34 0.65,-0.68 0.97,-1.02 z"
         id="path168" />
      <path
         class="cls-50"
         d="m 636.92,306.96 c -4.14,2.13 -7.52,5.2 -10.75,8.48 -0.76,0.77 -1.34,2.06 -2.68,1.71 -0.45,-0.12 -0.84,-1.01 -0.98,-1.61 -0.41,-1.81 0.99,-2.14 2.26,-2.56 2.89,-0.95 4.65,-3.56 7.22,-4.98 1.69,-0.14 2.85,-2.76 4.94,-1.04 z"
         id="path169" />
      <path
         class="cls-57"
         d="m 708.94,303.94 c -1.18,0.33 -2.03,-0.41 -2.94,-0.93 -2.35,-3.63 -6.36,-4.51 -9.98,-6.03 -0.7,-4.09 2.72,-1.94 3.45,-1.73 4.49,1.3 7.93,4.04 9.47,8.69 z"
         id="path170" />
      <path
         class="cls-8"
         d="m 747.91,332.08 c -1.24,-0.72 -1.76,-1.8 -1.97,-3.22 -0.3,-2.02 -1.24,-4.18 -3.03,-4.9 -9.14,-3.67 -14.59,-12.24 -22.89,-16.96 0.34,-0.37 0.68,-0.74 1.03,-1.1 5.9,0.96 9.52,5.5 13.93,8.82 -2.98,-2.58 -6.12,-4.97 -8.92,-7.74 0.38,-0.84 1.15,-0.88 1.91,-0.93 6.42,4.27 14,7.24 16.43,15.78 0.63,2.2 2.7,3.75 4.63,5.11 0.61,1.93 4.91,4.65 -1.11,5.14 z"
         id="path171" />
      <path
         class="cls-20"
         d="m 726.05,306.98 c 4.11,1.33 6.48,5.35 10.66,6.75 1.67,0.56 0.36,2.45 -0.56,4.01 -4.56,-4.75 -9.21,-9.13 -15.11,-11.84 0,-0.55 -1.23,-1.83 0.44,-1.4 1.63,0.42 3.06,1.63 4.57,2.49 z"
         id="path172" />
      <path
         class="cls-42"
         d="m 717.95,407.95 c 1.12,-1.56 2.35,-3.01 4.11,-3.9 2.89,0.48 5.01,2.44 8.95,4.27 -5.37,1.04 -9.21,0.02 -13.06,-0.37 z"
         id="path173" />
      <path
         class="cls-46"
         d="m 615.88,383.06 c 2.98,-0.03 5.26,0.96 6.07,4.12 -1.94,-1.5 -4.86,-1.56 -6.07,-4.12 z"
         id="path174" />
      <path
         class="cls-100"
         d="m 621.98,335.71 c 0.01,-4.86 2.88,-9.29 5.95,-9.2 9.04,0.26 13.12,3.37 13.03,9.94 -0.06,4.69 -3.63,9.4 -7.13,9.44 -8.14,0.08 -11.87,-3.13 -11.85,-10.18 z"
         id="path175" />
      <path
         class="cls-14"
         d="m 637,319 c 0.81,0.02 1.58,0.15 2.06,0.92 -0.48,1.59 -0.85,3.19 -0.84,4.87 -2.2,0.72 -4.36,1.56 -6.76,1.25 -4.06,-0.52 -1.23,-1.8 -0.35,-2.88 2.43,-0.73 3.33,-3.63 5.9,-4.15 z"
         id="path176" />
      <path
         class="cls-55"
         d="m 638.21,324.78 c -2.83,-2.16 -1.49,-3.6 0.84,-4.86 2.34,2.34 4.68,4.68 7.02,7.02 -1.34,0.36 -2.68,0.72 -4.03,1.08 0.31,-2.96 -2.05,-2.76 -3.84,-3.23 z"
         id="path177" />
      <path
         class="cls-63"
         d="m 663.8,391.86 c 2.62,0.27 3.64,-1.97 5.14,-3.36 1.48,-1.36 2.79,-2.86 5.07,-2.51 0.66,2.14 0.75,3.51 -2.02,4.71 -4.09,1.76 -7.18,5.06 -8.94,9.35 0,0 0,0 0,0 -0.9,1.25 -2,2.13 -3.59,1.3 -1,-0.52 -1.12,-1.42 -0.48,-2.37 1.87,-2.19 1.26,-6.06 4.81,-7.1 z"
         id="path178" />
      <path
         class="cls-13"
         d="m 658.98,398.96 c 0.61,3.18 2.49,1.56 4.07,1.07 -0.76,2.94 -3.01,5.69 -1.06,8.95 -0.66,0 -1.32,0 -1.99,0 -1.64,-1.3 1.19,-4.38 -2.02,-5.04 v 0.02 c -1.19,0.72 -2.02,0.73 -2,-0.98 1,-1.34 1.99,-2.68 2.99,-4.02 z"
         id="path179" />
      <path
         class="cls-69"
         d="m 655.99,402.98 c 0.44,0.78 1.18,0.93 1.98,0.98 -1.3,2.05 -2.73,3.93 -5.99,5.03 1.19,-2.74 1.92,-4.79 4.01,-6.01 z"
         id="path180" />
      <path
         class="cls-69"
         d="m 657.99,403.94 c 0.58,-0.89 1.35,-2.45 1.94,-0.22 0.44,1.64 0.08,3.5 0.08,5.27 -0.03,0.83 -0.21,1.59 -1.06,1.98 -0.25,-2.35 0.75,-4.87 -0.96,-7.02 z"
         id="path181" />
      <path
         class="cls-72"
         d="m 647.06,460.93 c -0.02,0.37 -0.03,0.74 -0.05,1.12 -7.94,-2.27 -14.24,-7.23 -20.44,-12.37 6.94,3.58 13.3,8.18 20.5,11.25 z"
         id="path182" />
      <path
         class="cls-83"
         d="m 602,416.01 c 3.81,7.1 9.06,13.38 12.04,20.96 0,0 -0.02,0.02 -0.02,0.02 -4.91,-3.67 -8.28,-8.59 -10.87,-14 -1.01,-2.11 -4.55,-4.13 -1.1,-7.04 l -0.06,0.06 z"
         id="path183" />
      <path
         class="cls-81"
         d="m 602.05,415.95 c -3.23,0.33 -3.84,-2.48 -5.17,-4.37 -1.08,-1.53 -0.33,-2.18 1.26,-2.76 1.68,-0.62 2.5,-0.23 2.82,1.43 0.37,1.91 0.69,3.83 1.03,5.75 0,0 0.06,-0.06 0.06,-0.06 z"
         id="path184" />
      <path
         class="cls-106"
         d="m 696.92,411.43 c 1.32,7.27 -5.16,13.77 -14.61,14.55 7.15,-2.58 12.7,-6.71 14.61,-14.55 z"
         id="path185" />
      <path
         class="cls-14"
         d="m 641.08,317.12 c 0,-0.34 0,-0.68 0,-1.03 7.37,-3.82 15.04,-6.79 23.14,-8.71 4.07,-0.97 5.61,0.59 5.76,4.37 0.04,1 -0.13,2.03 0.08,2.99 0.77,3.48 -0.74,4.7 -4.03,4.31 0,-1.66 -0.14,-3.33 0,-4.98 0.53,-6.02 0.58,-5.98 -5.64,-4.32 -5.13,1.37 -9.76,3.93 -14.61,5.97 -1.53,0.64 -2.96,1.54 -4.71,1.4 z"
         id="path186" />
    </g>
  </g>
</svg>
